<mxfile host="app.diagrams.net" agent="Mozilla/5.0 (Windows NT 10.0; Win64; x64) AppleWebKit/537.36 (KHTML, like Gecko) Chrome/128.0.0.0 Safari/537.36" version="24.7.14">
  <diagram id="R2lEEEUBdFMjLlhIrx00" name="csdlpt_1">
    <mxGraphModel dx="3450" dy="870" grid="1" gridSize="10" guides="1" tooltips="1" connect="1" arrows="1" fold="1" page="1" pageScale="1" pageWidth="850" pageHeight="1100" math="0" shadow="0" extFonts="Permanent Marker^https://fonts.googleapis.com/css?family=Permanent+Marker">
      <root>
        <mxCell id="0" />
        <mxCell id="1" parent="0" />
        <mxCell id="flHt2bnwaiDw3f1oSS73-5" value="&lt;font style=&quot;font-size: 14px;&quot;&gt;&lt;b&gt;Products&lt;/b&gt;&lt;/font&gt;" style="rounded=0;whiteSpace=wrap;html=1;" parent="1" vertex="1">
          <mxGeometry x="-640" y="470" width="80" height="40" as="geometry" />
        </mxCell>
        <mxCell id="flHt2bnwaiDw3f1oSS73-6" value="&lt;p style=&quot;font-size: 14px;&quot; data-pm-slice=&quot;1 1 [&amp;quot;tiptapChildEditor&amp;quot;,{&amp;quot;id&amp;quot;:&amp;quot;081e6cc2-4189-40d5-a934-3f33369b5ba1&amp;quot;,&amp;quot;entityid&amp;quot;:&amp;quot;&amp;quot;,&amp;quot;shapeId&amp;quot;:&amp;quot;kCz58VC7PkC&amp;quot;,&amp;quot;textId&amp;quot;:&amp;quot;SPdfIw4AN7d&amp;quot;}]&quot; dir=&quot;ltr&quot;&gt;&lt;span style=&quot;&quot;&gt;&amp;nbsp;&lt;/span&gt;&lt;span style=&quot;&quot;&gt;Quantity&lt;/span&gt;&lt;/p&gt;" style="ellipse;whiteSpace=wrap;html=1;rounded=0;" parent="1" vertex="1">
          <mxGeometry x="-815" y="305" width="85" height="30" as="geometry" />
        </mxCell>
        <mxCell id="flHt2bnwaiDw3f1oSS73-12" value="&lt;p data-pm-slice=&quot;1 1 [&amp;quot;tiptapChildEditor&amp;quot;,{&amp;quot;id&amp;quot;:&amp;quot;fc987127-ab2d-496d-9718-63762a4ee864&amp;quot;,&amp;quot;entityid&amp;quot;:&amp;quot;&amp;quot;,&amp;quot;shapeId&amp;quot;:&amp;quot;1TPhFTOj0PR&amp;quot;,&amp;quot;textId&amp;quot;:&amp;quot;znqbJaOrSwa&amp;quot;}]&quot; dir=&quot;ltr&quot;&gt;&lt;span style=&quot;font-size: 14pt;&quot;&gt;&lt;u style=&quot;font-size: 13px;&quot;&gt;&lt;font style=&quot;&quot; face=&quot;Helvetica&quot;&gt;ProductID&lt;/font&gt;&lt;/u&gt;&lt;/span&gt;&lt;/p&gt;" style="ellipse;whiteSpace=wrap;html=1;" parent="1" vertex="1">
          <mxGeometry x="-850" y="380" width="100" height="40" as="geometry" />
        </mxCell>
        <mxCell id="flHt2bnwaiDw3f1oSS73-13" value="&lt;p data-pm-slice=&quot;1 1 [&amp;quot;tiptapChildEditor&amp;quot;,{&amp;quot;id&amp;quot;:&amp;quot;da1a04e3-6524-49cb-b10c-691cc8b39863&amp;quot;,&amp;quot;entityid&amp;quot;:&amp;quot;&amp;quot;,&amp;quot;shapeId&amp;quot;:&amp;quot;xqHqNeBdrHg&amp;quot;,&amp;quot;textId&amp;quot;:&amp;quot;SPdfIw4AN7d&amp;quot;}]&quot; dir=&quot;ltr&quot;&gt;&lt;span style=&quot;font-size: 14px;&quot;&gt;&lt;font style=&quot;&quot; face=&quot;Helvetica&quot;&gt;NameSP&lt;/font&gt;&lt;/span&gt;&lt;/p&gt;" style="ellipse;whiteSpace=wrap;html=1;" parent="1" vertex="1">
          <mxGeometry x="-837.5" y="460" width="95" height="40" as="geometry" />
        </mxCell>
        <mxCell id="flHt2bnwaiDw3f1oSS73-14" value="&lt;p data-pm-slice=&quot;1 1 [&amp;quot;tiptapChildEditor&amp;quot;,{&amp;quot;id&amp;quot;:&amp;quot;52f9f3e1-06c0-4ea7-8eb1-37e6da8c8c8c&amp;quot;,&amp;quot;entityid&amp;quot;:&amp;quot;&amp;quot;,&amp;quot;shapeId&amp;quot;:&amp;quot;hPccBOUV1R2&amp;quot;,&amp;quot;textId&amp;quot;:&amp;quot;SPdfIw4AN7d&amp;quot;}]&quot; dir=&quot;ltr&quot;&gt;&lt;span style=&quot;font-size: 14px;&quot;&gt;&lt;font style=&quot;&quot; face=&quot;Helvetica&quot;&gt;Brand&lt;/font&gt;&lt;/span&gt;&lt;/p&gt;" style="ellipse;whiteSpace=wrap;html=1;" parent="1" vertex="1">
          <mxGeometry x="-820" y="520" width="95" height="40" as="geometry" />
        </mxCell>
        <mxCell id="flHt2bnwaiDw3f1oSS73-15" value="&lt;p data-pm-slice=&quot;1 1 [&amp;quot;tiptapChildEditor&amp;quot;,{&amp;quot;id&amp;quot;:&amp;quot;7d3618de-cc40-4f9c-b0e3-d91000557f6b&amp;quot;,&amp;quot;entityid&amp;quot;:&amp;quot;&amp;quot;,&amp;quot;shapeId&amp;quot;:&amp;quot;ynXCehrxjkT&amp;quot;,&amp;quot;textId&amp;quot;:&amp;quot;SPdfIw4AN7d&amp;quot;}]&quot; dir=&quot;ltr&quot;&gt;&lt;span style=&quot;font-size: 14px;&quot;&gt;&lt;font style=&quot;&quot; face=&quot;Helvetica&quot;&gt;Price&lt;/font&gt;&lt;/span&gt;&lt;/p&gt;" style="ellipse;whiteSpace=wrap;html=1;" parent="1" vertex="1">
          <mxGeometry x="-870" y="600" width="95" height="40" as="geometry" />
        </mxCell>
        <mxCell id="flHt2bnwaiDw3f1oSS73-17" value="&lt;p style=&quot;font-size: 14px;&quot; data-pm-slice=&quot;1 1 [&amp;quot;tiptapChildEditor&amp;quot;,{&amp;quot;id&amp;quot;:&amp;quot;83cdc2e0-cb7b-4bc7-8b36-16368decbab3&amp;quot;,&amp;quot;entityid&amp;quot;:&amp;quot;&amp;quot;,&amp;quot;shapeId&amp;quot;:&amp;quot;2arIjS8LSpn&amp;quot;,&amp;quot;textId&amp;quot;:&amp;quot;SPdfIw4AN7d&amp;quot;}]&quot; dir=&quot;ltr&quot;&gt;&lt;span style=&quot;&quot;&gt;&amp;nbsp;&lt;/span&gt;&lt;span style=&quot;&quot;&gt;Description&lt;/span&gt;&lt;/p&gt;" style="ellipse;whiteSpace=wrap;html=1;" parent="1" vertex="1">
          <mxGeometry x="-710" y="340" width="95" height="40" as="geometry" />
        </mxCell>
        <mxCell id="flHt2bnwaiDw3f1oSS73-18" value="" style="endArrow=none;html=1;rounded=0;entryX=0.5;entryY=1;entryDx=0;entryDy=0;exitX=0;exitY=0.25;exitDx=0;exitDy=0;" parent="1" source="flHt2bnwaiDw3f1oSS73-5" target="flHt2bnwaiDw3f1oSS73-6" edge="1">
          <mxGeometry width="50" height="50" relative="1" as="geometry">
            <mxPoint x="-290" y="360" as="sourcePoint" />
            <mxPoint x="-240" y="310" as="targetPoint" />
          </mxGeometry>
        </mxCell>
        <mxCell id="flHt2bnwaiDw3f1oSS73-19" value="" style="endArrow=none;html=1;rounded=0;exitX=1;exitY=1;exitDx=0;exitDy=0;entryX=0;entryY=0.25;entryDx=0;entryDy=0;" parent="1" source="flHt2bnwaiDw3f1oSS73-12" target="flHt2bnwaiDw3f1oSS73-5" edge="1">
          <mxGeometry width="50" height="50" relative="1" as="geometry">
            <mxPoint x="-640" y="450" as="sourcePoint" />
            <mxPoint x="-590" y="400" as="targetPoint" />
          </mxGeometry>
        </mxCell>
        <mxCell id="flHt2bnwaiDw3f1oSS73-20" value="" style="endArrow=none;html=1;rounded=0;exitX=1;exitY=0;exitDx=0;exitDy=0;entryX=0;entryY=0.25;entryDx=0;entryDy=0;" parent="1" source="flHt2bnwaiDw3f1oSS73-13" target="flHt2bnwaiDw3f1oSS73-5" edge="1">
          <mxGeometry width="50" height="50" relative="1" as="geometry">
            <mxPoint x="-290" y="360" as="sourcePoint" />
            <mxPoint x="-240" y="310" as="targetPoint" />
          </mxGeometry>
        </mxCell>
        <mxCell id="flHt2bnwaiDw3f1oSS73-21" value="" style="endArrow=none;html=1;rounded=0;exitX=0.5;exitY=0;exitDx=0;exitDy=0;entryX=0.25;entryY=1;entryDx=0;entryDy=0;" parent="1" source="flHt2bnwaiDw3f1oSS73-14" target="flHt2bnwaiDw3f1oSS73-5" edge="1">
          <mxGeometry width="50" height="50" relative="1" as="geometry">
            <mxPoint x="-290" y="360" as="sourcePoint" />
            <mxPoint x="-240" y="310" as="targetPoint" />
          </mxGeometry>
        </mxCell>
        <mxCell id="flHt2bnwaiDw3f1oSS73-22" value="" style="endArrow=none;html=1;rounded=0;exitX=0.5;exitY=0;exitDx=0;exitDy=0;entryX=0.25;entryY=1;entryDx=0;entryDy=0;" parent="1" source="flHt2bnwaiDw3f1oSS73-15" target="flHt2bnwaiDw3f1oSS73-5" edge="1">
          <mxGeometry width="50" height="50" relative="1" as="geometry">
            <mxPoint x="-290" y="360" as="sourcePoint" />
            <mxPoint x="-240" y="310" as="targetPoint" />
          </mxGeometry>
        </mxCell>
        <mxCell id="flHt2bnwaiDw3f1oSS73-23" value="" style="endArrow=none;html=1;rounded=0;exitX=0.5;exitY=1;exitDx=0;exitDy=0;entryX=0.5;entryY=0;entryDx=0;entryDy=0;" parent="1" source="flHt2bnwaiDw3f1oSS73-17" target="flHt2bnwaiDw3f1oSS73-5" edge="1">
          <mxGeometry width="50" height="50" relative="1" as="geometry">
            <mxPoint x="-290" y="360" as="sourcePoint" />
            <mxPoint x="-240" y="310" as="targetPoint" />
          </mxGeometry>
        </mxCell>
        <mxCell id="flHt2bnwaiDw3f1oSS73-24" value="&lt;p style=&quot;font-size: 14px;&quot; data-pm-slice=&quot;1 1 [&amp;quot;tiptapChildEditor&amp;quot;,{&amp;quot;id&amp;quot;:&amp;quot;03294862-4512-49ef-ba9d-95e81f4f9717&amp;quot;,&amp;quot;entityid&amp;quot;:&amp;quot;&amp;quot;,&amp;quot;shapeId&amp;quot;:&amp;quot;if0FGaXSqaj&amp;quot;,&amp;quot;textId&amp;quot;:&amp;quot;SPdfIw4AN7d&amp;quot;}]&quot; dir=&quot;ltr&quot;&gt;&lt;span style=&quot;&quot;&gt;&amp;nbsp;&lt;/span&gt;&lt;span style=&quot;&quot;&gt;CategoryID&lt;/span&gt;&lt;/p&gt;" style="ellipse;whiteSpace=wrap;html=1;" parent="1" vertex="1">
          <mxGeometry x="-760" y="590" width="95" height="40" as="geometry" />
        </mxCell>
        <mxCell id="flHt2bnwaiDw3f1oSS73-26" value="" style="endArrow=none;html=1;rounded=0;exitX=0.5;exitY=0;exitDx=0;exitDy=0;entryX=0.25;entryY=1;entryDx=0;entryDy=0;" parent="1" source="flHt2bnwaiDw3f1oSS73-24" target="flHt2bnwaiDw3f1oSS73-5" edge="1">
          <mxGeometry width="50" height="50" relative="1" as="geometry">
            <mxPoint x="-646" y="572" as="sourcePoint" />
            <mxPoint x="-570" y="460" as="targetPoint" />
          </mxGeometry>
        </mxCell>
        <mxCell id="flHt2bnwaiDw3f1oSS73-27" value="&lt;font style=&quot;font-size: 14px;&quot;&gt;&lt;b&gt;Stores&lt;/b&gt;&lt;/font&gt;" style="rounded=0;whiteSpace=wrap;html=1;" parent="1" vertex="1">
          <mxGeometry x="-500" y="280" width="80" height="40" as="geometry" />
        </mxCell>
        <mxCell id="flHt2bnwaiDw3f1oSS73-28" value="" style="edgeStyle=orthogonalEdgeStyle;fontSize=12;html=1;endArrow=ERoneToMany;rounded=0;entryX=0.75;entryY=0;entryDx=0;entryDy=0;strokeWidth=1;exitX=0;exitY=0.25;exitDx=0;exitDy=0;" parent="1" source="flHt2bnwaiDw3f1oSS73-27" target="flHt2bnwaiDw3f1oSS73-5" edge="1">
          <mxGeometry width="100" height="100" relative="1" as="geometry">
            <mxPoint x="-580" y="300" as="sourcePoint" />
            <mxPoint x="-220" y="300" as="targetPoint" />
            <Array as="points">
              <mxPoint x="-500" y="300" />
              <mxPoint x="-580" y="300" />
            </Array>
          </mxGeometry>
        </mxCell>
        <mxCell id="flHt2bnwaiDw3f1oSS73-30" value="1" style="edgeLabel;html=1;align=center;verticalAlign=middle;resizable=0;points=[];" parent="flHt2bnwaiDw3f1oSS73-28" vertex="1" connectable="0">
          <mxGeometry x="-0.8293" y="-5" relative="1" as="geometry">
            <mxPoint as="offset" />
          </mxGeometry>
        </mxCell>
        <mxCell id="flHt2bnwaiDw3f1oSS73-36" value="&lt;p data-pm-slice=&quot;1 1 [&amp;quot;tiptapChildEditor&amp;quot;,{&amp;quot;id&amp;quot;:&amp;quot;90756efa-4fa9-47c6-808a-53fc601c587c&amp;quot;,&amp;quot;entityid&amp;quot;:&amp;quot;&amp;quot;,&amp;quot;shapeId&amp;quot;:&amp;quot;mqSaOM5CcHK&amp;quot;,&amp;quot;textId&amp;quot;:&amp;quot;SPdfIw4AN7d&amp;quot;}]&quot; dir=&quot;ltr&quot;&gt;&lt;font style=&quot;font-size: 14px;&quot;&gt;DepartmentID&lt;/font&gt;&lt;/p&gt;" style="ellipse;whiteSpace=wrap;html=1;" parent="1" vertex="1">
          <mxGeometry x="-360" y="210" width="110" height="40" as="geometry" />
        </mxCell>
        <mxCell id="flHt2bnwaiDw3f1oSS73-37" value="&lt;p style=&quot;font-size: 14px;&quot; data-pm-slice=&quot;1 1 [&amp;quot;tiptapChildEditor&amp;quot;,{&amp;quot;id&amp;quot;:&amp;quot;ded667f5-e131-4e3e-be0a-4265d150950b&amp;quot;,&amp;quot;entityid&amp;quot;:&amp;quot;&amp;quot;,&amp;quot;shapeId&amp;quot;:&amp;quot;Fh7PjkLS706&amp;quot;,&amp;quot;textId&amp;quot;:&amp;quot;SPdfIw4AN7d&amp;quot;}]&quot; dir=&quot;ltr&quot;&gt;&lt;span style=&quot;&quot;&gt;&amp;nbsp;&lt;/span&gt;&lt;span style=&quot;&quot;&gt;StoreAddress&lt;/span&gt;&lt;/p&gt;" style="ellipse;whiteSpace=wrap;html=1;" parent="1" vertex="1">
          <mxGeometry x="-355" y="360" width="115" height="40" as="geometry" />
        </mxCell>
        <mxCell id="flHt2bnwaiDw3f1oSS73-38" value="&lt;p style=&quot;font-size: 14px;&quot; data-pm-slice=&quot;1 1 [&amp;quot;tiptapChildEditor&amp;quot;,{&amp;quot;id&amp;quot;:&amp;quot;3f354848-fe63-407d-9ced-1e7d11159d32&amp;quot;,&amp;quot;entityid&amp;quot;:&amp;quot;&amp;quot;,&amp;quot;shapeId&amp;quot;:&amp;quot;avHp8tu0fZY&amp;quot;,&amp;quot;textId&amp;quot;:&amp;quot;SPdfIw4AN7d&amp;quot;}]&quot; dir=&quot;ltr&quot;&gt;&lt;span style=&quot;&quot;&gt;&amp;nbsp;&amp;nbsp;&lt;/span&gt;&lt;span style=&quot;&quot;&gt;StoreName&lt;/span&gt;&lt;/p&gt;" style="ellipse;whiteSpace=wrap;html=1;" parent="1" vertex="1">
          <mxGeometry x="-440" y="180" width="95" height="40" as="geometry" />
        </mxCell>
        <mxCell id="flHt2bnwaiDw3f1oSS73-39" value="" style="endArrow=none;html=1;rounded=0;exitX=0.06;exitY=0.835;exitDx=0;exitDy=0;entryX=0.75;entryY=0;entryDx=0;entryDy=0;exitPerimeter=0;" parent="1" source="flHt2bnwaiDw3f1oSS73-36" target="flHt2bnwaiDw3f1oSS73-27" edge="1">
          <mxGeometry width="50" height="50" relative="1" as="geometry">
            <mxPoint x="-612" y="330" as="sourcePoint" />
            <mxPoint x="-450" y="320" as="targetPoint" />
          </mxGeometry>
        </mxCell>
        <mxCell id="flHt2bnwaiDw3f1oSS73-40" value="" style="endArrow=none;html=1;rounded=0;exitX=0.432;exitY=0.03;exitDx=0;exitDy=0;exitPerimeter=0;entryX=1;entryY=1;entryDx=0;entryDy=0;" parent="1" source="flHt2bnwaiDw3f1oSS73-37" target="flHt2bnwaiDw3f1oSS73-27" edge="1">
          <mxGeometry width="50" height="50" relative="1" as="geometry">
            <mxPoint x="-532" y="250" as="sourcePoint" />
            <mxPoint x="-425" y="310" as="targetPoint" />
          </mxGeometry>
        </mxCell>
        <mxCell id="flHt2bnwaiDw3f1oSS73-41" value="" style="endArrow=none;html=1;rounded=0;exitX=0;exitY=1;exitDx=0;exitDy=0;entryX=0.75;entryY=0;entryDx=0;entryDy=0;" parent="1" source="flHt2bnwaiDw3f1oSS73-38" target="flHt2bnwaiDw3f1oSS73-27" edge="1">
          <mxGeometry width="50" height="50" relative="1" as="geometry">
            <mxPoint x="-422" y="280" as="sourcePoint" />
            <mxPoint x="-400" y="330" as="targetPoint" />
          </mxGeometry>
        </mxCell>
        <mxCell id="flHt2bnwaiDw3f1oSS73-43" value="&lt;p data-pm-slice=&quot;1 1 [&amp;quot;tiptapChildEditor&amp;quot;,{&amp;quot;id&amp;quot;:&amp;quot;ef62063b-5b62-4fe8-b954-6bd887784513&amp;quot;,&amp;quot;entityid&amp;quot;:&amp;quot;&amp;quot;,&amp;quot;shapeId&amp;quot;:&amp;quot;qzvbVsqPrai&amp;quot;,&amp;quot;textId&amp;quot;:&amp;quot;znqbJaOrSwa&amp;quot;}]&quot; dir=&quot;ltr&quot;&gt;&lt;u style=&quot;&quot;&gt;&lt;font style=&quot;font-size: 14px;&quot; face=&quot;Helvetica&quot;&gt;StoreID&lt;/font&gt;&lt;/u&gt;&lt;/p&gt;" style="ellipse;whiteSpace=wrap;html=1;" parent="1" vertex="1">
          <mxGeometry x="-420" y="400" width="75" height="30" as="geometry" />
        </mxCell>
        <mxCell id="flHt2bnwaiDw3f1oSS73-44" value="" style="endArrow=none;html=1;rounded=0;exitX=1;exitY=1;exitDx=0;exitDy=0;entryX=0.337;entryY=0.03;entryDx=0;entryDy=0;entryPerimeter=0;" parent="1" source="flHt2bnwaiDw3f1oSS73-27" target="flHt2bnwaiDw3f1oSS73-43" edge="1">
          <mxGeometry width="50" height="50" relative="1" as="geometry">
            <mxPoint x="-422" y="280" as="sourcePoint" />
            <mxPoint x="-420" y="340" as="targetPoint" />
          </mxGeometry>
        </mxCell>
        <mxCell id="flHt2bnwaiDw3f1oSS73-45" value="&lt;p data-pm-slice=&quot;1 1 [&amp;quot;tiptapChildEditor&amp;quot;,{&amp;quot;id&amp;quot;:&amp;quot;afd03fce-b03a-4c4a-acd7-76d6ac619955&amp;quot;,&amp;quot;entityid&amp;quot;:&amp;quot;&amp;quot;,&amp;quot;shapeId&amp;quot;:&amp;quot;HkzInH01RTF&amp;quot;,&amp;quot;textId&amp;quot;:&amp;quot;NdqAj477R8z&amp;quot;}]&quot; dir=&quot;ltr&quot;&gt;&lt;strong style=&quot;&quot;&gt;&lt;font style=&quot;font-size: 14px;&quot; face=&quot;Helvetica&quot;&gt;Employees&lt;/font&gt;&lt;/strong&gt;&lt;/p&gt;" style="rounded=0;whiteSpace=wrap;html=1;" parent="1" vertex="1">
          <mxGeometry x="-560" y="170" width="80" height="40" as="geometry" />
        </mxCell>
        <mxCell id="flHt2bnwaiDw3f1oSS73-46" value="" style="fontSize=12;html=1;endArrow=ERoneToMany;rounded=0;exitX=0.39;exitY=-0.07;exitDx=0;exitDy=0;entryX=0.5;entryY=1;entryDx=0;entryDy=0;strokeWidth=1;exitPerimeter=0;edgeStyle=orthogonalEdgeStyle;" parent="1" source="flHt2bnwaiDw3f1oSS73-27" target="flHt2bnwaiDw3f1oSS73-45" edge="1">
          <mxGeometry width="100" height="100" relative="1" as="geometry">
            <mxPoint x="-490" y="310" as="sourcePoint" />
            <mxPoint x="-550" y="480" as="targetPoint" />
          </mxGeometry>
        </mxCell>
        <mxCell id="flHt2bnwaiDw3f1oSS73-47" value="1" style="edgeLabel;html=1;align=center;verticalAlign=middle;resizable=0;points=[];" parent="flHt2bnwaiDw3f1oSS73-46" vertex="1" connectable="0">
          <mxGeometry x="-0.8293" y="-5" relative="1" as="geometry">
            <mxPoint as="offset" />
          </mxGeometry>
        </mxCell>
        <mxCell id="flHt2bnwaiDw3f1oSS73-48" value="&lt;p style=&quot;font-size: 14px;&quot; data-pm-slice=&quot;1 1 [&amp;quot;tiptapChildEditor&amp;quot;,{&amp;quot;id&amp;quot;:&amp;quot;83cdc2e0-cb7b-4bc7-8b36-16368decbab3&amp;quot;,&amp;quot;entityid&amp;quot;:&amp;quot;&amp;quot;,&amp;quot;shapeId&amp;quot;:&amp;quot;2arIjS8LSpn&amp;quot;,&amp;quot;textId&amp;quot;:&amp;quot;SPdfIw4AN7d&amp;quot;}]&quot; dir=&quot;ltr&quot;&gt;Position&lt;/p&gt;" style="ellipse;whiteSpace=wrap;html=1;" parent="1" vertex="1">
          <mxGeometry x="-742.5" y="140" width="95" height="40" as="geometry" />
        </mxCell>
        <mxCell id="flHt2bnwaiDw3f1oSS73-49" value="&lt;p style=&quot;font-size: 14px;&quot; data-pm-slice=&quot;1 1 [&amp;quot;tiptapChildEditor&amp;quot;,{&amp;quot;id&amp;quot;:&amp;quot;83cdc2e0-cb7b-4bc7-8b36-16368decbab3&amp;quot;,&amp;quot;entityid&amp;quot;:&amp;quot;&amp;quot;,&amp;quot;shapeId&amp;quot;:&amp;quot;2arIjS8LSpn&amp;quot;,&amp;quot;textId&amp;quot;:&amp;quot;SPdfIw4AN7d&amp;quot;}]&quot; dir=&quot;ltr&quot;&gt;&lt;span style=&quot;font-size:11.0pt;line-height:115%;&lt;br/&gt;font-family:&amp;quot;Calibri&amp;quot;,sans-serif;mso-ascii-theme-font:minor-latin;mso-fareast-font-family:&lt;br/&gt;Calibri;mso-fareast-theme-font:minor-latin;mso-hansi-theme-font:minor-latin;&lt;br/&gt;mso-bidi-font-family:&amp;quot;Times New Roman&amp;quot;;mso-bidi-theme-font:minor-bidi;&lt;br/&gt;mso-ansi-language:EN-US;mso-fareast-language:EN-US;mso-bidi-language:AR-SA&quot;&gt;&amp;nbsp; &amp;nbsp; StoreID&amp;nbsp;&lt;/span&gt;&lt;br&gt;&lt;/p&gt;" style="ellipse;whiteSpace=wrap;html=1;" parent="1" vertex="1">
          <mxGeometry x="-710" y="210" width="95" height="40" as="geometry" />
        </mxCell>
        <mxCell id="flHt2bnwaiDw3f1oSS73-50" value="&lt;p style=&quot;font-size: 14px;&quot; data-pm-slice=&quot;1 1 [&amp;quot;tiptapChildEditor&amp;quot;,{&amp;quot;id&amp;quot;:&amp;quot;83cdc2e0-cb7b-4bc7-8b36-16368decbab3&amp;quot;,&amp;quot;entityid&amp;quot;:&amp;quot;&amp;quot;,&amp;quot;shapeId&amp;quot;:&amp;quot;2arIjS8LSpn&amp;quot;,&amp;quot;textId&amp;quot;:&amp;quot;SPdfIw4AN7d&amp;quot;}]&quot; dir=&quot;ltr&quot;&gt;Salary&lt;/p&gt;" style="ellipse;whiteSpace=wrap;html=1;" parent="1" vertex="1">
          <mxGeometry x="-730" y="70" width="95" height="40" as="geometry" />
        </mxCell>
        <mxCell id="flHt2bnwaiDw3f1oSS73-51" value="&lt;p style=&quot;font-size: 14px;&quot; data-pm-slice=&quot;1 1 [&amp;quot;tiptapChildEditor&amp;quot;,{&amp;quot;id&amp;quot;:&amp;quot;83cdc2e0-cb7b-4bc7-8b36-16368decbab3&amp;quot;,&amp;quot;entityid&amp;quot;:&amp;quot;&amp;quot;,&amp;quot;shapeId&amp;quot;:&amp;quot;2arIjS8LSpn&amp;quot;,&amp;quot;textId&amp;quot;:&amp;quot;SPdfIw4AN7d&amp;quot;}]&quot; dir=&quot;ltr&quot;&gt;Fullname&lt;/p&gt;" style="ellipse;whiteSpace=wrap;html=1;" parent="1" vertex="1">
          <mxGeometry x="-660" y="20" width="95" height="40" as="geometry" />
        </mxCell>
        <mxCell id="flHt2bnwaiDw3f1oSS73-52" value="&lt;p style=&quot;font-size: 14px;&quot; data-pm-slice=&quot;1 1 [&amp;quot;tiptapChildEditor&amp;quot;,{&amp;quot;id&amp;quot;:&amp;quot;83cdc2e0-cb7b-4bc7-8b36-16368decbab3&amp;quot;,&amp;quot;entityid&amp;quot;:&amp;quot;&amp;quot;,&amp;quot;shapeId&amp;quot;:&amp;quot;2arIjS8LSpn&amp;quot;,&amp;quot;textId&amp;quot;:&amp;quot;SPdfIw4AN7d&amp;quot;}]&quot; dir=&quot;ltr&quot;&gt;Address&lt;/p&gt;" style="ellipse;whiteSpace=wrap;html=1;" parent="1" vertex="1">
          <mxGeometry x="-560" y="10" width="95" height="30" as="geometry" />
        </mxCell>
        <mxCell id="flHt2bnwaiDw3f1oSS73-53" value="&lt;p style=&quot;font-size: 14px;&quot; data-pm-slice=&quot;1 1 [&amp;quot;tiptapChildEditor&amp;quot;,{&amp;quot;id&amp;quot;:&amp;quot;83cdc2e0-cb7b-4bc7-8b36-16368decbab3&amp;quot;,&amp;quot;entityid&amp;quot;:&amp;quot;&amp;quot;,&amp;quot;shapeId&amp;quot;:&amp;quot;2arIjS8LSpn&amp;quot;,&amp;quot;textId&amp;quot;:&amp;quot;SPdfIw4AN7d&amp;quot;}]&quot; dir=&quot;ltr&quot;&gt;Phone&lt;/p&gt;" style="ellipse;whiteSpace=wrap;html=1;" parent="1" vertex="1">
          <mxGeometry x="-465" y="30" width="95" height="30" as="geometry" />
        </mxCell>
        <mxCell id="flHt2bnwaiDw3f1oSS73-54" value="&lt;p style=&quot;font-size: 14px;&quot; data-pm-slice=&quot;1 1 [&amp;quot;tiptapChildEditor&amp;quot;,{&amp;quot;id&amp;quot;:&amp;quot;83cdc2e0-cb7b-4bc7-8b36-16368decbab3&amp;quot;,&amp;quot;entityid&amp;quot;:&amp;quot;&amp;quot;,&amp;quot;shapeId&amp;quot;:&amp;quot;2arIjS8LSpn&amp;quot;,&amp;quot;textId&amp;quot;:&amp;quot;SPdfIw4AN7d&amp;quot;}]&quot; dir=&quot;ltr&quot;&gt;Email&lt;/p&gt;" style="ellipse;whiteSpace=wrap;html=1;" parent="1" vertex="1">
          <mxGeometry x="-420" y="70" width="95" height="30" as="geometry" />
        </mxCell>
        <mxCell id="flHt2bnwaiDw3f1oSS73-56" value="" style="endArrow=none;html=1;rounded=0;exitX=0.699;exitY=0.97;exitDx=0;exitDy=0;entryX=0;entryY=0;entryDx=0;entryDy=0;exitPerimeter=0;" parent="1" source="flHt2bnwaiDw3f1oSS73-51" target="flHt2bnwaiDw3f1oSS73-45" edge="1">
          <mxGeometry width="50" height="50" relative="1" as="geometry">
            <mxPoint x="-597" y="60" as="sourcePoint" />
            <mxPoint x="-565" y="135" as="targetPoint" />
          </mxGeometry>
        </mxCell>
        <mxCell id="flHt2bnwaiDw3f1oSS73-57" value="" style="endArrow=none;html=1;rounded=0;exitX=0.244;exitY=0.987;exitDx=0;exitDy=0;exitPerimeter=0;entryX=0.25;entryY=0;entryDx=0;entryDy=0;" parent="1" source="flHt2bnwaiDw3f1oSS73-52" target="flHt2bnwaiDw3f1oSS73-45" edge="1">
          <mxGeometry width="50" height="50" relative="1" as="geometry">
            <mxPoint x="-518.5705149022444" y="29.95756242832067" as="sourcePoint" />
            <mxPoint x="-552" y="170" as="targetPoint" />
          </mxGeometry>
        </mxCell>
        <mxCell id="flHt2bnwaiDw3f1oSS73-58" value="" style="endArrow=none;html=1;rounded=0;exitX=0.246;exitY=1.093;exitDx=0;exitDy=0;entryX=0.35;entryY=-0.08;entryDx=0;entryDy=0;entryPerimeter=0;exitPerimeter=0;" parent="1" source="flHt2bnwaiDw3f1oSS73-53" target="flHt2bnwaiDw3f1oSS73-45" edge="1">
          <mxGeometry width="50" height="50" relative="1" as="geometry">
            <mxPoint x="-527" y="50" as="sourcePoint" />
            <mxPoint x="-530" y="180" as="targetPoint" />
          </mxGeometry>
        </mxCell>
        <mxCell id="flHt2bnwaiDw3f1oSS73-59" value="" style="endArrow=none;html=1;rounded=0;exitX=0;exitY=1;exitDx=0;exitDy=0;entryX=0.375;entryY=0;entryDx=0;entryDy=0;entryPerimeter=0;" parent="1" source="flHt2bnwaiDw3f1oSS73-54" target="flHt2bnwaiDw3f1oSS73-45" edge="1">
          <mxGeometry width="50" height="50" relative="1" as="geometry">
            <mxPoint x="-455" y="65" as="sourcePoint" />
            <mxPoint x="-522" y="177" as="targetPoint" />
          </mxGeometry>
        </mxCell>
        <mxCell id="flHt2bnwaiDw3f1oSS73-60" value="" style="endArrow=none;html=1;rounded=0;exitX=1;exitY=0.5;exitDx=0;exitDy=0;entryX=0;entryY=0.25;entryDx=0;entryDy=0;" parent="1" source="flHt2bnwaiDw3f1oSS73-50" target="flHt2bnwaiDw3f1oSS73-45" edge="1">
          <mxGeometry width="50" height="50" relative="1" as="geometry">
            <mxPoint x="-584" y="69" as="sourcePoint" />
            <mxPoint x="-550" y="180" as="targetPoint" />
          </mxGeometry>
        </mxCell>
        <mxCell id="flHt2bnwaiDw3f1oSS73-61" value="" style="endArrow=none;html=1;rounded=0;exitX=1;exitY=0.5;exitDx=0;exitDy=0;entryX=0;entryY=0.5;entryDx=0;entryDy=0;" parent="1" source="flHt2bnwaiDw3f1oSS73-48" target="flHt2bnwaiDw3f1oSS73-45" edge="1">
          <mxGeometry width="50" height="50" relative="1" as="geometry">
            <mxPoint x="-625" y="100" as="sourcePoint" />
            <mxPoint x="-550" y="190" as="targetPoint" />
          </mxGeometry>
        </mxCell>
        <mxCell id="flHt2bnwaiDw3f1oSS73-62" value="" style="endArrow=none;html=1;rounded=0;exitX=1;exitY=0;exitDx=0;exitDy=0;entryX=0;entryY=0.75;entryDx=0;entryDy=0;" parent="1" source="flHt2bnwaiDw3f1oSS73-49" target="flHt2bnwaiDw3f1oSS73-45" edge="1">
          <mxGeometry width="50" height="50" relative="1" as="geometry">
            <mxPoint x="-637" y="170" as="sourcePoint" />
            <mxPoint x="-550" y="200" as="targetPoint" />
          </mxGeometry>
        </mxCell>
        <mxCell id="flHt2bnwaiDw3f1oSS73-63" value="&lt;p style=&quot;&quot; data-pm-slice=&quot;1 1 [&amp;quot;tiptapChildEditor&amp;quot;,{&amp;quot;id&amp;quot;:&amp;quot;83cdc2e0-cb7b-4bc7-8b36-16368decbab3&amp;quot;,&amp;quot;entityid&amp;quot;:&amp;quot;&amp;quot;,&amp;quot;shapeId&amp;quot;:&amp;quot;2arIjS8LSpn&amp;quot;,&amp;quot;textId&amp;quot;:&amp;quot;SPdfIw4AN7d&amp;quot;}]&quot; dir=&quot;ltr&quot;&gt;&lt;u style=&quot;&quot;&gt;&lt;font style=&quot;font-size: 14px;&quot; face=&quot;Helvetica&quot;&gt;EID&lt;/font&gt;&lt;/u&gt;&lt;br&gt;&lt;/p&gt;" style="ellipse;whiteSpace=wrap;html=1;" parent="1" vertex="1">
          <mxGeometry x="-425" y="130" width="95" height="30" as="geometry" />
        </mxCell>
        <mxCell id="flHt2bnwaiDw3f1oSS73-64" value="" style="endArrow=none;html=1;rounded=0;exitX=0;exitY=1;exitDx=0;exitDy=0;entryX=1;entryY=0.25;entryDx=0;entryDy=0;" parent="1" source="flHt2bnwaiDw3f1oSS73-63" target="flHt2bnwaiDw3f1oSS73-45" edge="1">
          <mxGeometry width="50" height="50" relative="1" as="geometry">
            <mxPoint x="-396" y="106" as="sourcePoint" />
            <mxPoint x="-520" y="180" as="targetPoint" />
          </mxGeometry>
        </mxCell>
        <mxCell id="flHt2bnwaiDw3f1oSS73-65" value="&lt;p data-pm-slice=&quot;1 1 [&amp;quot;tiptapChildEditor&amp;quot;,{&amp;quot;id&amp;quot;:&amp;quot;e218552d-1afc-48d7-8ebc-1772c59ac105&amp;quot;,&amp;quot;entityid&amp;quot;:&amp;quot;&amp;quot;,&amp;quot;shapeId&amp;quot;:&amp;quot;uF2ol37NJ9i&amp;quot;,&amp;quot;textId&amp;quot;:&amp;quot;NdqAj477R8z&amp;quot;}]&quot; dir=&quot;ltr&quot;&gt;&lt;strong style=&quot;&quot;&gt;&lt;font face=&quot;Helvetica&quot; style=&quot;font-size: 14px;&quot;&gt;Department&lt;/font&gt;&lt;/strong&gt;&lt;/p&gt;" style="rounded=0;whiteSpace=wrap;html=1;" parent="1" vertex="1">
          <mxGeometry x="-240" y="280" width="100" height="40" as="geometry" />
        </mxCell>
        <mxCell id="flHt2bnwaiDw3f1oSS73-66" value="" style="fontSize=12;html=1;endArrow=ERoneToMany;rounded=0;exitX=0;exitY=0.5;exitDx=0;exitDy=0;entryX=1;entryY=0.5;entryDx=0;entryDy=0;strokeWidth=1;" parent="1" source="flHt2bnwaiDw3f1oSS73-65" target="flHt2bnwaiDw3f1oSS73-27" edge="1">
          <mxGeometry width="100" height="100" relative="1" as="geometry">
            <mxPoint x="-275" y="269.47" as="sourcePoint" />
            <mxPoint x="-326" y="202.47" as="targetPoint" />
          </mxGeometry>
        </mxCell>
        <mxCell id="flHt2bnwaiDw3f1oSS73-67" value="1" style="edgeLabel;html=1;align=center;verticalAlign=middle;resizable=0;points=[];" parent="flHt2bnwaiDw3f1oSS73-66" vertex="1" connectable="0">
          <mxGeometry x="-0.8293" y="-5" relative="1" as="geometry">
            <mxPoint as="offset" />
          </mxGeometry>
        </mxCell>
        <mxCell id="flHt2bnwaiDw3f1oSS73-68" value="&lt;p style=&quot;font-size: 14px;&quot; data-pm-slice=&quot;1 1 [&amp;quot;tiptapChildEditor&amp;quot;,{&amp;quot;id&amp;quot;:&amp;quot;3f354848-fe63-407d-9ced-1e7d11159d32&amp;quot;,&amp;quot;entityid&amp;quot;:&amp;quot;&amp;quot;,&amp;quot;shapeId&amp;quot;:&amp;quot;avHp8tu0fZY&amp;quot;,&amp;quot;textId&amp;quot;:&amp;quot;SPdfIw4AN7d&amp;quot;}]&quot; dir=&quot;ltr&quot;&gt;Name&lt;/p&gt;" style="ellipse;whiteSpace=wrap;html=1;" parent="1" vertex="1">
          <mxGeometry x="-110" y="200" width="95" height="40" as="geometry" />
        </mxCell>
        <mxCell id="flHt2bnwaiDw3f1oSS73-69" value="&lt;p style=&quot;font-size: 14px;&quot; data-pm-slice=&quot;1 1 [&amp;quot;tiptapChildEditor&amp;quot;,{&amp;quot;id&amp;quot;:&amp;quot;3f354848-fe63-407d-9ced-1e7d11159d32&amp;quot;,&amp;quot;entityid&amp;quot;:&amp;quot;&amp;quot;,&amp;quot;shapeId&amp;quot;:&amp;quot;avHp8tu0fZY&amp;quot;,&amp;quot;textId&amp;quot;:&amp;quot;SPdfIw4AN7d&amp;quot;}]&quot; dir=&quot;ltr&quot;&gt;Address&lt;/p&gt;" style="ellipse;whiteSpace=wrap;html=1;" parent="1" vertex="1">
          <mxGeometry x="-60" y="260" width="95" height="40" as="geometry" />
        </mxCell>
        <mxCell id="flHt2bnwaiDw3f1oSS73-70" value="&lt;p style=&quot;font-size: 14px;&quot; data-pm-slice=&quot;1 1 [&amp;quot;tiptapChildEditor&amp;quot;,{&amp;quot;id&amp;quot;:&amp;quot;6837ee4d-61f7-4ce7-8019-18448c8aa4e7&amp;quot;,&amp;quot;entityid&amp;quot;:&amp;quot;&amp;quot;,&amp;quot;shapeId&amp;quot;:&amp;quot;sxobvkVXpp0&amp;quot;,&amp;quot;textId&amp;quot;:&amp;quot;SPdfIw4AN7d&amp;quot;}]&quot; dir=&quot;ltr&quot;&gt;&lt;span style=&quot;&quot;&gt;&amp;nbsp; &amp;nbsp;&amp;nbsp;&lt;/span&gt;&lt;span style=&quot;&quot;&gt;HeadquarterID&lt;/span&gt;&lt;/p&gt;" style="ellipse;whiteSpace=wrap;html=1;" parent="1" vertex="1">
          <mxGeometry x="-70" y="320" width="130" height="40" as="geometry" />
        </mxCell>
        <mxCell id="flHt2bnwaiDw3f1oSS73-71" value="&lt;p data-pm-slice=&quot;1 1 [&amp;quot;tiptapChildEditor&amp;quot;,{&amp;quot;id&amp;quot;:&amp;quot;a73c9df0-20e1-4989-a657-5844d389de28&amp;quot;,&amp;quot;entityid&amp;quot;:&amp;quot;&amp;quot;,&amp;quot;shapeId&amp;quot;:&amp;quot;bFrZEYasAsw&amp;quot;,&amp;quot;textId&amp;quot;:&amp;quot;znqbJaOrSwa&amp;quot;}]&quot; dir=&quot;ltr&quot;&gt;&lt;u style=&quot;&quot;&gt;&lt;font face=&quot;Helvetica&quot; style=&quot;font-size: 14px;&quot;&gt;DepartmentID&lt;/font&gt;&lt;/u&gt;&lt;/p&gt;" style="ellipse;whiteSpace=wrap;html=1;" parent="1" vertex="1">
          <mxGeometry x="-120" y="375" width="140" height="35" as="geometry" />
        </mxCell>
        <mxCell id="flHt2bnwaiDw3f1oSS73-72" value="" style="endArrow=none;html=1;rounded=0;entryX=1;entryY=0.25;entryDx=0;entryDy=0;" parent="1" source="flHt2bnwaiDw3f1oSS73-68" target="flHt2bnwaiDw3f1oSS73-65" edge="1">
          <mxGeometry width="50" height="50" relative="1" as="geometry">
            <mxPoint x="-336" y="353" as="sourcePoint" />
            <mxPoint x="-430" y="330" as="targetPoint" />
          </mxGeometry>
        </mxCell>
        <mxCell id="flHt2bnwaiDw3f1oSS73-73" value="" style="endArrow=none;html=1;rounded=0;entryX=1;entryY=0.5;entryDx=0;entryDy=0;exitX=0;exitY=0.5;exitDx=0;exitDy=0;" parent="1" source="flHt2bnwaiDw3f1oSS73-69" target="flHt2bnwaiDw3f1oSS73-65" edge="1">
          <mxGeometry width="50" height="50" relative="1" as="geometry">
            <mxPoint x="-75" y="248" as="sourcePoint" />
            <mxPoint x="-130" y="290" as="targetPoint" />
          </mxGeometry>
        </mxCell>
        <mxCell id="flHt2bnwaiDw3f1oSS73-75" value="" style="endArrow=none;html=1;rounded=0;entryX=1;entryY=0.5;entryDx=0;entryDy=0;exitX=0;exitY=0;exitDx=0;exitDy=0;" parent="1" source="flHt2bnwaiDw3f1oSS73-70" target="flHt2bnwaiDw3f1oSS73-65" edge="1">
          <mxGeometry width="50" height="50" relative="1" as="geometry">
            <mxPoint x="-50" y="290" as="sourcePoint" />
            <mxPoint x="-130" y="300" as="targetPoint" />
          </mxGeometry>
        </mxCell>
        <mxCell id="flHt2bnwaiDw3f1oSS73-76" value="" style="endArrow=none;html=1;rounded=0;entryX=1;entryY=1;entryDx=0;entryDy=0;exitX=0.388;exitY=-0.019;exitDx=0;exitDy=0;exitPerimeter=0;" parent="1" source="flHt2bnwaiDw3f1oSS73-71" target="flHt2bnwaiDw3f1oSS73-65" edge="1">
          <mxGeometry width="50" height="50" relative="1" as="geometry">
            <mxPoint x="-46" y="336" as="sourcePoint" />
            <mxPoint x="-130" y="300" as="targetPoint" />
          </mxGeometry>
        </mxCell>
        <mxCell id="flHt2bnwaiDw3f1oSS73-77" value="&lt;p data-pm-slice=&quot;1 1 [&amp;quot;tiptapChildEditor&amp;quot;,{&amp;quot;id&amp;quot;:&amp;quot;7c0d5999-ea26-4cf7-bad9-35ea1045ca7c&amp;quot;,&amp;quot;entityid&amp;quot;:&amp;quot;&amp;quot;,&amp;quot;shapeId&amp;quot;:&amp;quot;dTowpEHbOuc&amp;quot;,&amp;quot;textId&amp;quot;:&amp;quot;NdqAj477R8z&amp;quot;}]&quot; dir=&quot;ltr&quot;&gt;&lt;strong style=&quot;&quot;&gt;&lt;font face=&quot;Helvetica&quot; style=&quot;font-size: 14px;&quot;&gt;Headquarter&lt;/font&gt;&lt;/strong&gt;&lt;/p&gt;" style="rounded=0;whiteSpace=wrap;html=1;" parent="1" vertex="1">
          <mxGeometry x="-240" y="170" width="100" height="40" as="geometry" />
        </mxCell>
        <mxCell id="flHt2bnwaiDw3f1oSS73-78" value="" style="fontSize=12;html=1;endArrow=ERoneToMany;rounded=0;exitX=0.5;exitY=1;exitDx=0;exitDy=0;entryX=0.5;entryY=0;entryDx=0;entryDy=0;strokeWidth=1;" parent="1" source="flHt2bnwaiDw3f1oSS73-77" target="flHt2bnwaiDw3f1oSS73-65" edge="1">
          <mxGeometry width="100" height="100" relative="1" as="geometry">
            <mxPoint x="-230" y="300" as="sourcePoint" />
            <mxPoint x="-410" y="310" as="targetPoint" />
          </mxGeometry>
        </mxCell>
        <mxCell id="flHt2bnwaiDw3f1oSS73-79" value="1" style="edgeLabel;html=1;align=center;verticalAlign=middle;resizable=0;points=[];" parent="flHt2bnwaiDw3f1oSS73-78" vertex="1" connectable="0">
          <mxGeometry x="-0.8293" y="-5" relative="1" as="geometry">
            <mxPoint as="offset" />
          </mxGeometry>
        </mxCell>
        <mxCell id="flHt2bnwaiDw3f1oSS73-80" value="&lt;p style=&quot;font-size: 14px;&quot; data-pm-slice=&quot;1 1 [&amp;quot;tiptapChildEditor&amp;quot;,{&amp;quot;id&amp;quot;:&amp;quot;1bd35ddb-616d-41e4-9649-64c6752160c1&amp;quot;,&amp;quot;entityid&amp;quot;:&amp;quot;&amp;quot;,&amp;quot;shapeId&amp;quot;:&amp;quot;49hhgSS7Hkh&amp;quot;,&amp;quot;textId&amp;quot;:&amp;quot;SPdfIw4AN7d&amp;quot;}]&quot; dir=&quot;ltr&quot;&gt;&lt;u&gt;&lt;span style=&quot;&quot;&gt;&amp;nbsp;&lt;/span&gt;&lt;span style=&quot;&quot;&gt;HeadquarterID&lt;/span&gt;&lt;/u&gt;&lt;/p&gt;" style="ellipse;whiteSpace=wrap;html=1;" parent="1" vertex="1">
          <mxGeometry x="-300" y="90" width="130" height="40" as="geometry" />
        </mxCell>
        <mxCell id="flHt2bnwaiDw3f1oSS73-81" value="&lt;p style=&quot;font-size: 14px;&quot; data-pm-slice=&quot;1 1 [&amp;quot;tiptapChildEditor&amp;quot;,{&amp;quot;id&amp;quot;:&amp;quot;3f354848-fe63-407d-9ced-1e7d11159d32&amp;quot;,&amp;quot;entityid&amp;quot;:&amp;quot;&amp;quot;,&amp;quot;shapeId&amp;quot;:&amp;quot;avHp8tu0fZY&amp;quot;,&amp;quot;textId&amp;quot;:&amp;quot;SPdfIw4AN7d&amp;quot;}]&quot; dir=&quot;ltr&quot;&gt;Name&lt;/p&gt;" style="ellipse;whiteSpace=wrap;html=1;" parent="1" vertex="1">
          <mxGeometry x="-165" y="40" width="95" height="40" as="geometry" />
        </mxCell>
        <mxCell id="flHt2bnwaiDw3f1oSS73-82" value="&lt;p style=&quot;font-size: 14px;&quot; data-pm-slice=&quot;1 1 [&amp;quot;tiptapChildEditor&amp;quot;,{&amp;quot;id&amp;quot;:&amp;quot;3f354848-fe63-407d-9ced-1e7d11159d32&amp;quot;,&amp;quot;entityid&amp;quot;:&amp;quot;&amp;quot;,&amp;quot;shapeId&amp;quot;:&amp;quot;avHp8tu0fZY&amp;quot;,&amp;quot;textId&amp;quot;:&amp;quot;SPdfIw4AN7d&amp;quot;}]&quot; dir=&quot;ltr&quot;&gt;Address&lt;/p&gt;" style="ellipse;whiteSpace=wrap;html=1;" parent="1" vertex="1">
          <mxGeometry x="-110" y="110" width="95" height="40" as="geometry" />
        </mxCell>
        <mxCell id="flHt2bnwaiDw3f1oSS73-83" value="" style="endArrow=none;html=1;rounded=0;entryX=0.411;entryY=0.047;entryDx=0;entryDy=0;entryPerimeter=0;exitX=0.5;exitY=1;exitDx=0;exitDy=0;" parent="1" source="flHt2bnwaiDw3f1oSS73-80" target="flHt2bnwaiDw3f1oSS73-77" edge="1">
          <mxGeometry width="50" height="50" relative="1" as="geometry">
            <mxPoint x="-75" y="248" as="sourcePoint" />
            <mxPoint x="-130" y="290" as="targetPoint" />
          </mxGeometry>
        </mxCell>
        <mxCell id="flHt2bnwaiDw3f1oSS73-84" value="" style="endArrow=none;html=1;rounded=0;entryX=0.5;entryY=0;entryDx=0;entryDy=0;exitX=0.347;exitY=1.015;exitDx=0;exitDy=0;exitPerimeter=0;" parent="1" source="flHt2bnwaiDw3f1oSS73-81" target="flHt2bnwaiDw3f1oSS73-77" edge="1">
          <mxGeometry width="50" height="50" relative="1" as="geometry">
            <mxPoint x="-212" y="140" as="sourcePoint" />
            <mxPoint x="-190" y="183" as="targetPoint" />
          </mxGeometry>
        </mxCell>
        <mxCell id="flHt2bnwaiDw3f1oSS73-85" value="" style="endArrow=none;html=1;rounded=0;entryX=0.59;entryY=-0.047;entryDx=0;entryDy=0;exitX=0;exitY=0.5;exitDx=0;exitDy=0;entryPerimeter=0;" parent="1" source="flHt2bnwaiDw3f1oSS73-82" target="flHt2bnwaiDw3f1oSS73-77" edge="1">
          <mxGeometry width="50" height="50" relative="1" as="geometry">
            <mxPoint x="-122" y="91" as="sourcePoint" />
            <mxPoint x="-180" y="180" as="targetPoint" />
          </mxGeometry>
        </mxCell>
        <mxCell id="flHt2bnwaiDw3f1oSS73-87" value="&lt;b&gt;&lt;span style=&quot;line-height: 115%;&quot;&gt;&lt;font style=&quot;font-size: 14px;&quot;&gt;Categories&lt;/font&gt;&lt;/span&gt;&lt;/b&gt;" style="rounded=0;whiteSpace=wrap;html=1;" parent="1" vertex="1">
          <mxGeometry x="-330" y="470" width="80" height="40" as="geometry" />
        </mxCell>
        <mxCell id="flHt2bnwaiDw3f1oSS73-88" value="&lt;p style=&quot;font-size: 14px;&quot; data-pm-slice=&quot;1 1 [&amp;quot;tiptapChildEditor&amp;quot;,{&amp;quot;id&amp;quot;:&amp;quot;03294862-4512-49ef-ba9d-95e81f4f9717&amp;quot;,&amp;quot;entityid&amp;quot;:&amp;quot;&amp;quot;,&amp;quot;shapeId&amp;quot;:&amp;quot;if0FGaXSqaj&amp;quot;,&amp;quot;textId&amp;quot;:&amp;quot;SPdfIw4AN7d&amp;quot;}]&quot; dir=&quot;ltr&quot;&gt;&lt;u&gt;&lt;span style=&quot;&quot;&gt;&amp;nbsp;&lt;/span&gt;&lt;span style=&quot;&quot;&gt;CategoryID&lt;/span&gt;&lt;/u&gt;&lt;/p&gt;" style="ellipse;whiteSpace=wrap;html=1;" parent="1" vertex="1">
          <mxGeometry x="-240" y="400" width="110" height="40" as="geometry" />
        </mxCell>
        <mxCell id="flHt2bnwaiDw3f1oSS73-89" value="&lt;p style=&quot;&quot; data-pm-slice=&quot;1 1 [&amp;quot;tiptapChildEditor&amp;quot;,{&amp;quot;id&amp;quot;:&amp;quot;03294862-4512-49ef-ba9d-95e81f4f9717&amp;quot;,&amp;quot;entityid&amp;quot;:&amp;quot;&amp;quot;,&amp;quot;shapeId&amp;quot;:&amp;quot;if0FGaXSqaj&amp;quot;,&amp;quot;textId&amp;quot;:&amp;quot;SPdfIw4AN7d&amp;quot;}]&quot; dir=&quot;ltr&quot;&gt;&lt;span style=&quot;line-height: 115%;&quot;&gt;&lt;font style=&quot;font-size: 14px;&quot;&gt;DescCate&lt;/font&gt;&lt;/span&gt;&lt;br&gt;&lt;/p&gt;" style="ellipse;whiteSpace=wrap;html=1;" parent="1" vertex="1">
          <mxGeometry x="-165" y="460" width="95" height="40" as="geometry" />
        </mxCell>
        <mxCell id="flHt2bnwaiDw3f1oSS73-90" value="&lt;p style=&quot;font-size: 14px;&quot; data-pm-slice=&quot;1 1 [&amp;quot;tiptapChildEditor&amp;quot;,{&amp;quot;id&amp;quot;:&amp;quot;03294862-4512-49ef-ba9d-95e81f4f9717&amp;quot;,&amp;quot;entityid&amp;quot;:&amp;quot;&amp;quot;,&amp;quot;shapeId&amp;quot;:&amp;quot;if0FGaXSqaj&amp;quot;,&amp;quot;textId&amp;quot;:&amp;quot;SPdfIw4AN7d&amp;quot;}]&quot; dir=&quot;ltr&quot;&gt;CateName&lt;/p&gt;" style="ellipse;whiteSpace=wrap;html=1;" parent="1" vertex="1">
          <mxGeometry x="-240" y="520" width="95" height="40" as="geometry" />
        </mxCell>
        <mxCell id="flHt2bnwaiDw3f1oSS73-91" value="" style="endArrow=none;html=1;rounded=0;exitX=0;exitY=1;exitDx=0;exitDy=0;entryX=1;entryY=0.25;entryDx=0;entryDy=0;" parent="1" source="flHt2bnwaiDw3f1oSS73-88" target="flHt2bnwaiDw3f1oSS73-87" edge="1">
          <mxGeometry width="50" height="50" relative="1" as="geometry">
            <mxPoint x="-632" y="570" as="sourcePoint" />
            <mxPoint x="-590" y="520" as="targetPoint" />
          </mxGeometry>
        </mxCell>
        <mxCell id="flHt2bnwaiDw3f1oSS73-92" value="" style="endArrow=none;html=1;rounded=0;exitX=0;exitY=0;exitDx=0;exitDy=0;entryX=1;entryY=0.5;entryDx=0;entryDy=0;" parent="1" source="flHt2bnwaiDw3f1oSS73-89" target="flHt2bnwaiDw3f1oSS73-87" edge="1">
          <mxGeometry width="50" height="50" relative="1" as="geometry">
            <mxPoint x="-176" y="474" as="sourcePoint" />
            <mxPoint x="-235" y="500" as="targetPoint" />
          </mxGeometry>
        </mxCell>
        <mxCell id="flHt2bnwaiDw3f1oSS73-94" value="" style="endArrow=none;html=1;rounded=0;exitX=0.5;exitY=0;exitDx=0;exitDy=0;entryX=1;entryY=1;entryDx=0;entryDy=0;" parent="1" source="flHt2bnwaiDw3f1oSS73-90" target="flHt2bnwaiDw3f1oSS73-87" edge="1">
          <mxGeometry width="50" height="50" relative="1" as="geometry">
            <mxPoint x="-156" y="526" as="sourcePoint" />
            <mxPoint x="-235" y="510" as="targetPoint" />
          </mxGeometry>
        </mxCell>
        <mxCell id="flHt2bnwaiDw3f1oSS73-95" value="" style="fontSize=12;html=1;endArrow=ERoneToMany;rounded=0;entryX=1;entryY=0.5;entryDx=0;entryDy=0;strokeWidth=1;exitX=0;exitY=0.5;exitDx=0;exitDy=0;" parent="1" source="flHt2bnwaiDw3f1oSS73-87" target="flHt2bnwaiDw3f1oSS73-5" edge="1">
          <mxGeometry width="100" height="100" relative="1" as="geometry">
            <mxPoint x="-490" y="300" as="sourcePoint" />
            <mxPoint x="-570" y="480" as="targetPoint" />
          </mxGeometry>
        </mxCell>
        <mxCell id="flHt2bnwaiDw3f1oSS73-96" value="1" style="edgeLabel;html=1;align=center;verticalAlign=middle;resizable=0;points=[];" parent="flHt2bnwaiDw3f1oSS73-95" vertex="1" connectable="0">
          <mxGeometry x="-0.8293" y="-5" relative="1" as="geometry">
            <mxPoint x="10" y="-5" as="offset" />
          </mxGeometry>
        </mxCell>
        <mxCell id="flHt2bnwaiDw3f1oSS73-97" value="&lt;span style=&quot;font-size: 14px;&quot;&gt;&lt;b&gt;Orders&lt;/b&gt;&lt;/span&gt;" style="rounded=0;whiteSpace=wrap;html=1;" parent="1" vertex="1">
          <mxGeometry x="-652.5" y="920" width="80" height="40" as="geometry" />
        </mxCell>
        <mxCell id="flHt2bnwaiDw3f1oSS73-98" value="&lt;p data-pm-slice=&quot;1 1 [&amp;quot;tiptapChildEditor&amp;quot;,{&amp;quot;id&amp;quot;:&amp;quot;7d3618de-cc40-4f9c-b0e3-d91000557f6b&amp;quot;,&amp;quot;entityid&amp;quot;:&amp;quot;&amp;quot;,&amp;quot;shapeId&amp;quot;:&amp;quot;ynXCehrxjkT&amp;quot;,&amp;quot;textId&amp;quot;:&amp;quot;SPdfIw4AN7d&amp;quot;}]&quot; dir=&quot;ltr&quot;&gt;&lt;span style=&quot;line-height: 115%;&quot;&gt;&lt;font style=&quot;font-size: 14px;&quot;&gt;&lt;u&gt;OrderID&lt;/u&gt;&lt;/font&gt;&lt;/span&gt;&lt;br&gt;&lt;/p&gt;" style="ellipse;whiteSpace=wrap;html=1;" parent="1" vertex="1">
          <mxGeometry x="-850" y="900" width="95" height="40" as="geometry" />
        </mxCell>
        <mxCell id="flHt2bnwaiDw3f1oSS73-99" value="&lt;p data-pm-slice=&quot;1 1 [&amp;quot;tiptapChildEditor&amp;quot;,{&amp;quot;id&amp;quot;:&amp;quot;7d3618de-cc40-4f9c-b0e3-d91000557f6b&amp;quot;,&amp;quot;entityid&amp;quot;:&amp;quot;&amp;quot;,&amp;quot;shapeId&amp;quot;:&amp;quot;ynXCehrxjkT&amp;quot;,&amp;quot;textId&amp;quot;:&amp;quot;SPdfIw4AN7d&amp;quot;}]&quot; dir=&quot;ltr&quot;&gt;&lt;span style=&quot;font-size: 14px; line-height: 115%;&quot;&gt;&lt;font face=&quot;Helvetica&quot;&gt;&amp;nbsp;CustomerID&amp;nbsp;&lt;/font&gt;&lt;/span&gt;&lt;br&gt;&lt;/p&gt;" style="ellipse;whiteSpace=wrap;html=1;" parent="1" vertex="1">
          <mxGeometry x="-845" y="950" width="95" height="40" as="geometry" />
        </mxCell>
        <mxCell id="flHt2bnwaiDw3f1oSS73-100" value="&lt;p data-pm-slice=&quot;1 1 [&amp;quot;tiptapChildEditor&amp;quot;,{&amp;quot;id&amp;quot;:&amp;quot;7d3618de-cc40-4f9c-b0e3-d91000557f6b&amp;quot;,&amp;quot;entityid&amp;quot;:&amp;quot;&amp;quot;,&amp;quot;shapeId&amp;quot;:&amp;quot;ynXCehrxjkT&amp;quot;,&amp;quot;textId&amp;quot;:&amp;quot;SPdfIw4AN7d&amp;quot;}]&quot; dir=&quot;ltr&quot;&gt;&lt;span style=&quot;font-size: 14px; line-height: 115%;&quot;&gt;&lt;font face=&quot;Verdana&quot;&gt;&amp;nbsp;StoreID&amp;nbsp;&lt;/font&gt;&lt;/span&gt;&lt;br&gt;&lt;/p&gt;" style="ellipse;whiteSpace=wrap;html=1;" parent="1" vertex="1">
          <mxGeometry x="-845" y="1005" width="95" height="35" as="geometry" />
        </mxCell>
        <mxCell id="flHt2bnwaiDw3f1oSS73-101" value="&lt;p data-pm-slice=&quot;1 1 [&amp;quot;tiptapChildEditor&amp;quot;,{&amp;quot;id&amp;quot;:&amp;quot;7d3618de-cc40-4f9c-b0e3-d91000557f6b&amp;quot;,&amp;quot;entityid&amp;quot;:&amp;quot;&amp;quot;,&amp;quot;shapeId&amp;quot;:&amp;quot;ynXCehrxjkT&amp;quot;,&amp;quot;textId&amp;quot;:&amp;quot;SPdfIw4AN7d&amp;quot;}]&quot; dir=&quot;ltr&quot;&gt;&lt;span style=&quot;font-size: 14px; line-height: 115%;&quot;&gt;&lt;font face=&quot;Helvetica&quot;&gt;OrderDate&lt;/font&gt;&lt;/span&gt;&lt;br&gt;&lt;/p&gt;" style="ellipse;whiteSpace=wrap;html=1;" parent="1" vertex="1">
          <mxGeometry x="-750" y="1030" width="95" height="40" as="geometry" />
        </mxCell>
        <mxCell id="flHt2bnwaiDw3f1oSS73-102" value="&lt;p data-pm-slice=&quot;1 1 [&amp;quot;tiptapChildEditor&amp;quot;,{&amp;quot;id&amp;quot;:&amp;quot;7d3618de-cc40-4f9c-b0e3-d91000557f6b&amp;quot;,&amp;quot;entityid&amp;quot;:&amp;quot;&amp;quot;,&amp;quot;shapeId&amp;quot;:&amp;quot;ynXCehrxjkT&amp;quot;,&amp;quot;textId&amp;quot;:&amp;quot;SPdfIw4AN7d&amp;quot;}]&quot; dir=&quot;ltr&quot;&gt;&lt;span style=&quot;font-size: 14px; line-height: 115%;&quot;&gt;&lt;font face=&quot;Helvetica&quot;&gt;&amp;nbsp; TotalAmount&amp;nbsp;&lt;/font&gt;&lt;/span&gt;&lt;br&gt;&lt;/p&gt;" style="ellipse;whiteSpace=wrap;html=1;" parent="1" vertex="1">
          <mxGeometry x="-675" y="1060" width="95" height="40" as="geometry" />
        </mxCell>
        <mxCell id="flHt2bnwaiDw3f1oSS73-103" value="&lt;p data-pm-slice=&quot;1 1 [&amp;quot;tiptapChildEditor&amp;quot;,{&amp;quot;id&amp;quot;:&amp;quot;7d3618de-cc40-4f9c-b0e3-d91000557f6b&amp;quot;,&amp;quot;entityid&amp;quot;:&amp;quot;&amp;quot;,&amp;quot;shapeId&amp;quot;:&amp;quot;ynXCehrxjkT&amp;quot;,&amp;quot;textId&amp;quot;:&amp;quot;SPdfIw4AN7d&amp;quot;}]&quot; dir=&quot;ltr&quot;&gt;&lt;span style=&quot;font-size: 14px;&quot;&gt;&lt;font face=&quot;Helvetica&quot;&gt;Price&lt;/font&gt;&lt;/span&gt;&lt;/p&gt;" style="ellipse;whiteSpace=wrap;html=1;" parent="1" vertex="1">
          <mxGeometry x="-580" y="1090" width="95" height="40" as="geometry" />
        </mxCell>
        <mxCell id="flHt2bnwaiDw3f1oSS73-104" value="" style="endArrow=none;html=1;rounded=0;exitX=0;exitY=0.25;exitDx=0;exitDy=0;entryX=1;entryY=1;entryDx=0;entryDy=0;" parent="1" source="flHt2bnwaiDw3f1oSS73-97" target="flHt2bnwaiDw3f1oSS73-98" edge="1">
          <mxGeometry width="50" height="50" relative="1" as="geometry">
            <mxPoint x="-522" y="560" as="sourcePoint" />
            <mxPoint x="-590" y="520" as="targetPoint" />
          </mxGeometry>
        </mxCell>
        <mxCell id="flHt2bnwaiDw3f1oSS73-105" value="" style="endArrow=none;html=1;rounded=0;exitX=0;exitY=0.25;exitDx=0;exitDy=0;entryX=1;entryY=0.5;entryDx=0;entryDy=0;" parent="1" source="flHt2bnwaiDw3f1oSS73-97" target="flHt2bnwaiDw3f1oSS73-99" edge="1">
          <mxGeometry width="50" height="50" relative="1" as="geometry">
            <mxPoint x="-650" y="730" as="sourcePoint" />
            <mxPoint x="-714" y="714" as="targetPoint" />
          </mxGeometry>
        </mxCell>
        <mxCell id="flHt2bnwaiDw3f1oSS73-106" value="" style="endArrow=none;html=1;rounded=0;exitX=0;exitY=0.75;exitDx=0;exitDy=0;entryX=1;entryY=0;entryDx=0;entryDy=0;" parent="1" source="flHt2bnwaiDw3f1oSS73-97" target="flHt2bnwaiDw3f1oSS73-100" edge="1">
          <mxGeometry width="50" height="50" relative="1" as="geometry">
            <mxPoint x="-650" y="730" as="sourcePoint" />
            <mxPoint x="-765" y="750" as="targetPoint" />
          </mxGeometry>
        </mxCell>
        <mxCell id="flHt2bnwaiDw3f1oSS73-107" value="" style="endArrow=none;html=1;rounded=0;exitX=0.25;exitY=1;exitDx=0;exitDy=0;entryX=0.5;entryY=0;entryDx=0;entryDy=0;" parent="1" source="flHt2bnwaiDw3f1oSS73-97" target="flHt2bnwaiDw3f1oSS73-101" edge="1">
          <mxGeometry width="50" height="50" relative="1" as="geometry">
            <mxPoint x="-650" y="750" as="sourcePoint" />
            <mxPoint x="-769" y="796" as="targetPoint" />
          </mxGeometry>
        </mxCell>
        <mxCell id="flHt2bnwaiDw3f1oSS73-108" value="" style="endArrow=none;html=1;rounded=0;exitX=0.363;exitY=0.994;exitDx=0;exitDy=0;entryX=0.5;entryY=0;entryDx=0;entryDy=0;exitPerimeter=0;" parent="1" source="flHt2bnwaiDw3f1oSS73-97" target="flHt2bnwaiDw3f1oSS73-102" edge="1">
          <mxGeometry width="50" height="50" relative="1" as="geometry">
            <mxPoint x="-630" y="760" as="sourcePoint" />
            <mxPoint x="-742" y="840" as="targetPoint" />
          </mxGeometry>
        </mxCell>
        <mxCell id="flHt2bnwaiDw3f1oSS73-109" value="" style="endArrow=none;html=1;rounded=0;entryX=0.215;entryY=-0.056;entryDx=0;entryDy=0;entryPerimeter=0;" parent="1" source="flHt2bnwaiDw3f1oSS73-97" target="flHt2bnwaiDw3f1oSS73-103" edge="1">
          <mxGeometry width="50" height="50" relative="1" as="geometry">
            <mxPoint x="-621" y="760" as="sourcePoint" />
            <mxPoint x="-667" y="890" as="targetPoint" />
          </mxGeometry>
        </mxCell>
        <mxCell id="flHt2bnwaiDw3f1oSS73-110" value="" style="fontSize=12;html=1;endArrow=ERoneToMany;rounded=0;strokeWidth=1;exitX=0.5;exitY=1;exitDx=0;exitDy=0;edgeStyle=orthogonalEdgeStyle;entryX=1;entryY=0.5;entryDx=0;entryDy=0;" parent="1" source="flHt2bnwaiDw3f1oSS73-27" target="flHt2bnwaiDw3f1oSS73-97" edge="1">
          <mxGeometry width="100" height="100" relative="1" as="geometry">
            <mxPoint x="-320" y="500" as="sourcePoint" />
            <mxPoint x="-470" y="730" as="targetPoint" />
          </mxGeometry>
        </mxCell>
        <mxCell id="flHt2bnwaiDw3f1oSS73-111" value="1" style="edgeLabel;html=1;align=center;verticalAlign=middle;resizable=0;points=[];" parent="flHt2bnwaiDw3f1oSS73-110" vertex="1" connectable="0">
          <mxGeometry x="-0.8293" y="-5" relative="1" as="geometry">
            <mxPoint y="-35" as="offset" />
          </mxGeometry>
        </mxCell>
        <mxCell id="flHt2bnwaiDw3f1oSS73-112" value="&lt;b&gt;&lt;span style=&quot;line-height: 115%;&quot;&gt;&lt;font style=&quot;font-size: 14px;&quot;&gt;ProductSuppliers&lt;/font&gt;&lt;/span&gt;&lt;/b&gt;" style="shape=associativeEntity;whiteSpace=wrap;html=1;align=center;" parent="1" vertex="1">
          <mxGeometry x="-345" y="670" width="160" height="70" as="geometry" />
        </mxCell>
        <mxCell id="flHt2bnwaiDw3f1oSS73-115" value="&lt;p style=&quot;font-size: 14px;&quot; data-pm-slice=&quot;1 1 [&amp;quot;tiptapChildEditor&amp;quot;,{&amp;quot;id&amp;quot;:&amp;quot;03294862-4512-49ef-ba9d-95e81f4f9717&amp;quot;,&amp;quot;entityid&amp;quot;:&amp;quot;&amp;quot;,&amp;quot;shapeId&amp;quot;:&amp;quot;if0FGaXSqaj&amp;quot;,&amp;quot;textId&amp;quot;:&amp;quot;SPdfIw4AN7d&amp;quot;}]&quot; dir=&quot;ltr&quot;&gt;&lt;span style=&quot;line-height: 115%;&quot;&gt;&lt;font face=&quot;Helvetica&quot;&gt;&lt;u&gt;&amp;nbsp;SupplierID&amp;nbsp;&lt;/u&gt;&lt;/font&gt;&lt;/span&gt;&lt;br&gt;&lt;/p&gt;" style="ellipse;whiteSpace=wrap;html=1;" parent="1" vertex="1">
          <mxGeometry x="-90" y="620" width="95" height="40" as="geometry" />
        </mxCell>
        <mxCell id="flHt2bnwaiDw3f1oSS73-116" value="&lt;p style=&quot;font-size: 14px;&quot; data-pm-slice=&quot;1 1 [&amp;quot;tiptapChildEditor&amp;quot;,{&amp;quot;id&amp;quot;:&amp;quot;03294862-4512-49ef-ba9d-95e81f4f9717&amp;quot;,&amp;quot;entityid&amp;quot;:&amp;quot;&amp;quot;,&amp;quot;shapeId&amp;quot;:&amp;quot;if0FGaXSqaj&amp;quot;,&amp;quot;textId&amp;quot;:&amp;quot;SPdfIw4AN7d&amp;quot;}]&quot; dir=&quot;ltr&quot;&gt;&lt;span style=&quot;line-height: 115%;&quot;&gt;&lt;font face=&quot;Helvetica&quot;&gt;&lt;u&gt;&amp;nbsp;ProductID&amp;nbsp;&lt;/u&gt;&lt;/font&gt;&lt;/span&gt;&lt;br&gt;&lt;/p&gt;" style="ellipse;whiteSpace=wrap;html=1;" parent="1" vertex="1">
          <mxGeometry x="-205" y="580" width="95" height="40" as="geometry" />
        </mxCell>
        <mxCell id="flHt2bnwaiDw3f1oSS73-117" value="&lt;p style=&quot;font-size: 14px;&quot; data-pm-slice=&quot;1 1 [&amp;quot;tiptapChildEditor&amp;quot;,{&amp;quot;id&amp;quot;:&amp;quot;03294862-4512-49ef-ba9d-95e81f4f9717&amp;quot;,&amp;quot;entityid&amp;quot;:&amp;quot;&amp;quot;,&amp;quot;shapeId&amp;quot;:&amp;quot;if0FGaXSqaj&amp;quot;,&amp;quot;textId&amp;quot;:&amp;quot;SPdfIw4AN7d&amp;quot;}]&quot; dir=&quot;ltr&quot;&gt;&lt;span style=&quot;line-height: 115%;&quot;&gt;&lt;font face=&quot;Helvetica&quot;&gt;&amp;nbsp; &amp;nbsp;Quantity&amp;nbsp;&lt;/font&gt;&lt;/span&gt;&lt;br&gt;&lt;/p&gt;" style="ellipse;whiteSpace=wrap;html=1;" parent="1" vertex="1">
          <mxGeometry x="-120" y="740" width="95" height="40" as="geometry" />
        </mxCell>
        <mxCell id="flHt2bnwaiDw3f1oSS73-118" value="" style="endArrow=none;html=1;rounded=0;exitX=0.5;exitY=0;exitDx=0;exitDy=0;entryX=0.5;entryY=1;entryDx=0;entryDy=0;" parent="1" source="flHt2bnwaiDw3f1oSS73-112" target="flHt2bnwaiDw3f1oSS73-116" edge="1">
          <mxGeometry width="50" height="50" relative="1" as="geometry">
            <mxPoint x="-182" y="530" as="sourcePoint" />
            <mxPoint x="-240" y="520" as="targetPoint" />
          </mxGeometry>
        </mxCell>
        <mxCell id="flHt2bnwaiDw3f1oSS73-119" value="" style="endArrow=none;html=1;rounded=0;exitX=1;exitY=0.5;exitDx=0;exitDy=0;entryX=0;entryY=1;entryDx=0;entryDy=0;" parent="1" source="flHt2bnwaiDw3f1oSS73-112" target="flHt2bnwaiDw3f1oSS73-115" edge="1">
          <mxGeometry width="50" height="50" relative="1" as="geometry">
            <mxPoint x="-280" y="680" as="sourcePoint" />
            <mxPoint x="-287" y="620" as="targetPoint" />
          </mxGeometry>
        </mxCell>
        <mxCell id="flHt2bnwaiDw3f1oSS73-121" value="" style="endArrow=none;html=1;rounded=0;entryX=-0.009;entryY=0.735;entryDx=0;entryDy=0;entryPerimeter=0;" parent="1" target="flHt2bnwaiDw3f1oSS73-117" edge="1">
          <mxGeometry width="50" height="50" relative="1" as="geometry">
            <mxPoint x="-200" y="740" as="sourcePoint" />
            <mxPoint x="-191" y="624" as="targetPoint" />
          </mxGeometry>
        </mxCell>
        <mxCell id="flHt2bnwaiDw3f1oSS73-123" value="&lt;b&gt;&lt;span style=&quot;line-height: 115%;&quot;&gt;&lt;font style=&quot;font-size: 14px;&quot;&gt;Suppliers&lt;/font&gt;&lt;/span&gt;&lt;/b&gt;" style="rounded=0;whiteSpace=wrap;html=1;" parent="1" vertex="1">
          <mxGeometry x="-345" y="920" width="140" height="40" as="geometry" />
        </mxCell>
        <mxCell id="flHt2bnwaiDw3f1oSS73-124" value="" style="fontSize=12;html=1;endArrow=ERoneToMany;rounded=0;strokeWidth=1;entryX=0.429;entryY=1.006;entryDx=0;entryDy=0;entryPerimeter=0;" parent="1" source="flHt2bnwaiDw3f1oSS73-123" target="flHt2bnwaiDw3f1oSS73-112" edge="1">
          <mxGeometry width="100" height="100" relative="1" as="geometry">
            <mxPoint x="-276" y="860" as="sourcePoint" />
            <mxPoint x="-335" y="715" as="targetPoint" />
          </mxGeometry>
        </mxCell>
        <mxCell id="flHt2bnwaiDw3f1oSS73-125" value="1" style="edgeLabel;html=1;align=center;verticalAlign=middle;resizable=0;points=[];" parent="flHt2bnwaiDw3f1oSS73-124" vertex="1" connectable="0">
          <mxGeometry x="-0.8293" y="-5" relative="1" as="geometry">
            <mxPoint x="-1" y="8" as="offset" />
          </mxGeometry>
        </mxCell>
        <mxCell id="flHt2bnwaiDw3f1oSS73-126" value="&lt;p data-pm-slice=&quot;1 1 [&amp;quot;tiptapChildEditor&amp;quot;,{&amp;quot;id&amp;quot;:&amp;quot;7d3618de-cc40-4f9c-b0e3-d91000557f6b&amp;quot;,&amp;quot;entityid&amp;quot;:&amp;quot;&amp;quot;,&amp;quot;shapeId&amp;quot;:&amp;quot;ynXCehrxjkT&amp;quot;,&amp;quot;textId&amp;quot;:&amp;quot;SPdfIw4AN7d&amp;quot;}]&quot; dir=&quot;ltr&quot;&gt;&lt;span style=&quot;font-size: 14px;&quot;&gt;&lt;font face=&quot;Helvetica&quot;&gt;SupID&lt;/font&gt;&lt;/span&gt;&lt;/p&gt;" style="ellipse;whiteSpace=wrap;html=1;" parent="1" vertex="1">
          <mxGeometry x="-472" y="1040" width="95" height="40" as="geometry" />
        </mxCell>
        <mxCell id="flHt2bnwaiDw3f1oSS73-127" value="&lt;p data-pm-slice=&quot;1 1 [&amp;quot;tiptapChildEditor&amp;quot;,{&amp;quot;id&amp;quot;:&amp;quot;7d3618de-cc40-4f9c-b0e3-d91000557f6b&amp;quot;,&amp;quot;entityid&amp;quot;:&amp;quot;&amp;quot;,&amp;quot;shapeId&amp;quot;:&amp;quot;ynXCehrxjkT&amp;quot;,&amp;quot;textId&amp;quot;:&amp;quot;SPdfIw4AN7d&amp;quot;}]&quot; dir=&quot;ltr&quot;&gt;&lt;span style=&quot;font-size: 14px;&quot;&gt;&lt;font face=&quot;Helvetica&quot;&gt;SupName&lt;/font&gt;&lt;/span&gt;&lt;/p&gt;" style="ellipse;whiteSpace=wrap;html=1;" parent="1" vertex="1">
          <mxGeometry x="-370" y="1060" width="95" height="40" as="geometry" />
        </mxCell>
        <mxCell id="flHt2bnwaiDw3f1oSS73-128" value="&lt;p data-pm-slice=&quot;1 1 [&amp;quot;tiptapChildEditor&amp;quot;,{&amp;quot;id&amp;quot;:&amp;quot;7d3618de-cc40-4f9c-b0e3-d91000557f6b&amp;quot;,&amp;quot;entityid&amp;quot;:&amp;quot;&amp;quot;,&amp;quot;shapeId&amp;quot;:&amp;quot;ynXCehrxjkT&amp;quot;,&amp;quot;textId&amp;quot;:&amp;quot;SPdfIw4AN7d&amp;quot;}]&quot; dir=&quot;ltr&quot;&gt;&lt;span style=&quot;font-size: 14px;&quot;&gt;&lt;font face=&quot;Helvetica&quot;&gt;ContactName&lt;/font&gt;&lt;/span&gt;&lt;/p&gt;" style="ellipse;whiteSpace=wrap;html=1;" parent="1" vertex="1">
          <mxGeometry x="-265" y="1080" width="95" height="40" as="geometry" />
        </mxCell>
        <mxCell id="flHt2bnwaiDw3f1oSS73-129" value="&lt;p data-pm-slice=&quot;1 1 [&amp;quot;tiptapChildEditor&amp;quot;,{&amp;quot;id&amp;quot;:&amp;quot;7d3618de-cc40-4f9c-b0e3-d91000557f6b&amp;quot;,&amp;quot;entityid&amp;quot;:&amp;quot;&amp;quot;,&amp;quot;shapeId&amp;quot;:&amp;quot;ynXCehrxjkT&amp;quot;,&amp;quot;textId&amp;quot;:&amp;quot;SPdfIw4AN7d&amp;quot;}]&quot; dir=&quot;ltr&quot;&gt;&lt;span style=&quot;font-size: 14px;&quot;&gt;&lt;font face=&quot;Helvetica&quot;&gt;Phone&lt;/font&gt;&lt;/span&gt;&lt;span style=&quot;color: rgba(0, 0, 0, 0); font-family: monospace; font-size: 0px; text-align: start; text-wrap: nowrap; background-color: initial;&quot;&gt;%3CmxGraphModel%3E%3Croot%3E%3CmxCell%20id%3D%220%22%2F%3E%3CmxCell%20id%3D%221%22%20parent%3D%220%22%2F%3E%3CmxCell%20id%3D%222%22%20value%3D%22%26lt%3Bp%20data-pm-slice%3D%26quot%3B1%201%20%5B%26amp%3Bquot%3BtiptapChildEditor%26amp%3Bquot%3B%2C%7B%26amp%3Bquot%3Bid%26amp%3Bquot%3B%3A%26amp%3Bquot%3B7d3618de-cc40-4f9c-b0e3-d91000557f6b%26amp%3Bquot%3B%2C%26amp%3Bquot%3Bentityid%26amp%3Bquot%3B%3A%26amp%3Bquot%3B%26amp%3Bquot%3B%2C%26amp%3Bquot%3BshapeId%26amp%3Bquot%3B%3A%26amp%3Bquot%3BynXCehrxjkT%26amp%3Bquot%3B%2C%26amp%3Bquot%3BtextId%26amp%3Bquot%3B%3A%26amp%3Bquot%3BSPdfIw4AN7d%26amp%3Bquot%3B%7D%5D%26quot%3B%20dir%3D%26quot%3Bltr%26quot%3B%26gt%3B%26lt%3Bspan%20style%3D%26quot%3Bfont-size%3A%2014px%3B%26quot%3B%26gt%3B%26lt%3Bfont%20face%3D%26quot%3BHelvetica%26quot%3B%26gt%3BPrice%26lt%3B%2Ffont%26gt%3B%26lt%3B%2Fspan%26gt%3B%26lt%3B%2Fp%26gt%3B%22%20style%3D%22ellipse%3BwhiteSpace%3Dwrap%3Bhtml%3D1%3B%22%20vertex%3D%221%22%20parent%3D%221%22%3E%3CmxGeometry%20x%3D%22-275%22%20y%3D%22990%22%20width%3D%2295%22%20height%3D%2240%22%20as%3D%22geometry%22%2F%3E%3C%2FmxCell%3E%3C%2Froot%3E%3C%2FmxGraphModel%3E&lt;/span&gt;&lt;/p&gt;" style="ellipse;whiteSpace=wrap;html=1;" parent="1" vertex="1">
          <mxGeometry x="-155" y="1060" width="95" height="40" as="geometry" />
        </mxCell>
        <mxCell id="flHt2bnwaiDw3f1oSS73-130" value="&lt;p data-pm-slice=&quot;1 1 [&amp;quot;tiptapChildEditor&amp;quot;,{&amp;quot;id&amp;quot;:&amp;quot;7d3618de-cc40-4f9c-b0e3-d91000557f6b&amp;quot;,&amp;quot;entityid&amp;quot;:&amp;quot;&amp;quot;,&amp;quot;shapeId&amp;quot;:&amp;quot;ynXCehrxjkT&amp;quot;,&amp;quot;textId&amp;quot;:&amp;quot;SPdfIw4AN7d&amp;quot;}]&quot; dir=&quot;ltr&quot;&gt;&lt;span style=&quot;font-size: 14px;&quot;&gt;Address&lt;/span&gt;&lt;/p&gt;" style="ellipse;whiteSpace=wrap;html=1;" parent="1" vertex="1">
          <mxGeometry x="-110" y="1000" width="95" height="40" as="geometry" />
        </mxCell>
        <mxCell id="flHt2bnwaiDw3f1oSS73-131" value="" style="endArrow=none;html=1;rounded=0;entryX=0.5;entryY=0;entryDx=0;entryDy=0;exitX=0;exitY=0.5;exitDx=0;exitDy=0;" parent="1" source="flHt2bnwaiDw3f1oSS73-123" target="flHt2bnwaiDw3f1oSS73-126" edge="1">
          <mxGeometry width="50" height="50" relative="1" as="geometry">
            <mxPoint x="-599" y="770" as="sourcePoint" />
            <mxPoint x="-580" y="888" as="targetPoint" />
          </mxGeometry>
        </mxCell>
        <mxCell id="flHt2bnwaiDw3f1oSS73-132" value="" style="endArrow=none;html=1;rounded=0;exitX=0;exitY=1;exitDx=0;exitDy=0;" parent="1" source="flHt2bnwaiDw3f1oSS73-123" target="flHt2bnwaiDw3f1oSS73-127" edge="1">
          <mxGeometry width="50" height="50" relative="1" as="geometry">
            <mxPoint x="-325" y="890" as="sourcePoint" />
            <mxPoint x="-450" y="980" as="targetPoint" />
          </mxGeometry>
        </mxCell>
        <mxCell id="flHt2bnwaiDw3f1oSS73-133" value="" style="endArrow=none;html=1;rounded=0;exitX=0.387;exitY=1.009;exitDx=0;exitDy=0;exitPerimeter=0;entryX=0;entryY=0;entryDx=0;entryDy=0;" parent="1" source="flHt2bnwaiDw3f1oSS73-123" target="flHt2bnwaiDw3f1oSS73-128" edge="1">
          <mxGeometry width="50" height="50" relative="1" as="geometry">
            <mxPoint x="-325" y="910" as="sourcePoint" />
            <mxPoint x="-335" y="1000" as="targetPoint" />
          </mxGeometry>
        </mxCell>
        <mxCell id="flHt2bnwaiDw3f1oSS73-134" value="" style="endArrow=none;html=1;rounded=0;exitX=0.387;exitY=0.985;exitDx=0;exitDy=0;exitPerimeter=0;entryX=0;entryY=0;entryDx=0;entryDy=0;" parent="1" source="flHt2bnwaiDw3f1oSS73-123" target="flHt2bnwaiDw3f1oSS73-129" edge="1">
          <mxGeometry width="50" height="50" relative="1" as="geometry">
            <mxPoint x="-270.02" y="896.9999999999998" as="sourcePoint" />
            <mxPoint x="-250" y="1003" as="targetPoint" />
          </mxGeometry>
        </mxCell>
        <mxCell id="flHt2bnwaiDw3f1oSS73-135" value="" style="endArrow=none;html=1;rounded=0;exitX=0.824;exitY=1.056;exitDx=0;exitDy=0;exitPerimeter=0;entryX=0.024;entryY=0.694;entryDx=0;entryDy=0;entryPerimeter=0;" parent="1" source="flHt2bnwaiDw3f1oSS73-123" target="flHt2bnwaiDw3f1oSS73-130" edge="1">
          <mxGeometry width="50" height="50" relative="1" as="geometry">
            <mxPoint x="-271" y="909" as="sourcePoint" />
            <mxPoint x="-131" y="1006" as="targetPoint" />
          </mxGeometry>
        </mxCell>
        <mxCell id="flHt2bnwaiDw3f1oSS73-138" value="" style="edgeStyle=orthogonalEdgeStyle;fontSize=12;html=1;endArrow=ERoneToMany;startArrow=ERoneToMany;rounded=0;entryX=0.75;entryY=1;entryDx=0;entryDy=0;exitX=0.145;exitY=-0.014;exitDx=0;exitDy=0;exitPerimeter=0;" parent="1" source="flHt2bnwaiDw3f1oSS73-112" edge="1">
          <mxGeometry width="100" height="100" relative="1" as="geometry">
            <mxPoint x="-345" y="700" as="sourcePoint" />
            <mxPoint x="-570" y="510" as="targetPoint" />
            <Array as="points">
              <mxPoint x="-322" y="630" />
              <mxPoint x="-570" y="630" />
            </Array>
          </mxGeometry>
        </mxCell>
        <mxCell id="flHt2bnwaiDw3f1oSS73-148" style="rounded=0;orthogonalLoop=1;jettySize=auto;html=1;endArrow=none;endFill=0;entryX=0;entryY=0;entryDx=0;entryDy=0;" parent="1" source="flHt2bnwaiDw3f1oSS73-141" target="flHt2bnwaiDw3f1oSS73-147" edge="1">
          <mxGeometry relative="1" as="geometry" />
        </mxCell>
        <mxCell id="flHt2bnwaiDw3f1oSS73-141" value="&lt;b&gt;&lt;span style=&quot;line-height: 115%;&quot;&gt;&lt;font style=&quot;font-size: 14px;&quot;&gt;Customers&lt;/font&gt;&lt;/span&gt;&lt;/b&gt;" style="rounded=0;whiteSpace=wrap;html=1;" parent="1" vertex="1">
          <mxGeometry y="680" width="140" height="40" as="geometry" />
        </mxCell>
        <mxCell id="flHt2bnwaiDw3f1oSS73-143" value="&lt;p style=&quot;font-size: 14px;&quot; data-pm-slice=&quot;1 1 [&amp;quot;tiptapChildEditor&amp;quot;,{&amp;quot;id&amp;quot;:&amp;quot;03294862-4512-49ef-ba9d-95e81f4f9717&amp;quot;,&amp;quot;entityid&amp;quot;:&amp;quot;&amp;quot;,&amp;quot;shapeId&amp;quot;:&amp;quot;if0FGaXSqaj&amp;quot;,&amp;quot;textId&amp;quot;:&amp;quot;SPdfIw4AN7d&amp;quot;}]&quot; dir=&quot;ltr&quot;&gt;&lt;span style=&quot;line-height: 115%;&quot;&gt;&lt;font face=&quot;Helvetica&quot;&gt;&lt;u&gt;CustomerID&lt;/u&gt;&lt;/font&gt;&lt;/span&gt;&lt;br&gt;&lt;/p&gt;" style="ellipse;whiteSpace=wrap;html=1;" parent="1" vertex="1">
          <mxGeometry x="120" y="570" width="95" height="40" as="geometry" />
        </mxCell>
        <mxCell id="flHt2bnwaiDw3f1oSS73-144" value="&lt;p style=&quot;font-size: 14px;&quot; data-pm-slice=&quot;1 1 [&amp;quot;tiptapChildEditor&amp;quot;,{&amp;quot;id&amp;quot;:&amp;quot;03294862-4512-49ef-ba9d-95e81f4f9717&amp;quot;,&amp;quot;entityid&amp;quot;:&amp;quot;&amp;quot;,&amp;quot;shapeId&amp;quot;:&amp;quot;if0FGaXSqaj&amp;quot;,&amp;quot;textId&amp;quot;:&amp;quot;SPdfIw4AN7d&amp;quot;}]&quot; dir=&quot;ltr&quot;&gt;&lt;span style=&quot;line-height: 115%;&quot;&gt;&lt;font face=&quot;Helvetica&quot;&gt;FullName&lt;/font&gt;&lt;/span&gt;&lt;br&gt;&lt;/p&gt;" style="ellipse;whiteSpace=wrap;html=1;" parent="1" vertex="1">
          <mxGeometry x="210" y="650" width="95" height="40" as="geometry" />
        </mxCell>
        <mxCell id="flHt2bnwaiDw3f1oSS73-145" value="&lt;p style=&quot;font-size: 14px;&quot; data-pm-slice=&quot;1 1 [&amp;quot;tiptapChildEditor&amp;quot;,{&amp;quot;id&amp;quot;:&amp;quot;03294862-4512-49ef-ba9d-95e81f4f9717&amp;quot;,&amp;quot;entityid&amp;quot;:&amp;quot;&amp;quot;,&amp;quot;shapeId&amp;quot;:&amp;quot;if0FGaXSqaj&amp;quot;,&amp;quot;textId&amp;quot;:&amp;quot;SPdfIw4AN7d&amp;quot;}]&quot; dir=&quot;ltr&quot;&gt;&lt;span style=&quot;line-height: 115%;&quot;&gt;&lt;font face=&quot;Helvetica&quot;&gt;Email&lt;/font&gt;&lt;/span&gt;&lt;br&gt;&lt;/p&gt;" style="ellipse;whiteSpace=wrap;html=1;" parent="1" vertex="1">
          <mxGeometry x="215" y="740" width="95" height="40" as="geometry" />
        </mxCell>
        <mxCell id="flHt2bnwaiDw3f1oSS73-146" value="&lt;p style=&quot;font-size: 14px;&quot; data-pm-slice=&quot;1 1 [&amp;quot;tiptapChildEditor&amp;quot;,{&amp;quot;id&amp;quot;:&amp;quot;03294862-4512-49ef-ba9d-95e81f4f9717&amp;quot;,&amp;quot;entityid&amp;quot;:&amp;quot;&amp;quot;,&amp;quot;shapeId&amp;quot;:&amp;quot;if0FGaXSqaj&amp;quot;,&amp;quot;textId&amp;quot;:&amp;quot;SPdfIw4AN7d&amp;quot;}]&quot; dir=&quot;ltr&quot;&gt;&lt;span style=&quot;line-height: 115%;&quot;&gt;&lt;font face=&quot;Helvetica&quot;&gt;Phone&lt;/font&gt;&lt;/span&gt;&lt;br&gt;&lt;/p&gt;" style="ellipse;whiteSpace=wrap;html=1;" parent="1" vertex="1">
          <mxGeometry x="210" y="820" width="95" height="40" as="geometry" />
        </mxCell>
        <mxCell id="flHt2bnwaiDw3f1oSS73-147" value="&lt;p style=&quot;font-size: 14px;&quot; data-pm-slice=&quot;1 1 [&amp;quot;tiptapChildEditor&amp;quot;,{&amp;quot;id&amp;quot;:&amp;quot;03294862-4512-49ef-ba9d-95e81f4f9717&amp;quot;,&amp;quot;entityid&amp;quot;:&amp;quot;&amp;quot;,&amp;quot;shapeId&amp;quot;:&amp;quot;if0FGaXSqaj&amp;quot;,&amp;quot;textId&amp;quot;:&amp;quot;SPdfIw4AN7d&amp;quot;}]&quot; dir=&quot;ltr&quot;&gt;&lt;span style=&quot;line-height: 115%;&quot;&gt;&lt;font face=&quot;Helvetica&quot;&gt;Address&lt;/font&gt;&lt;/span&gt;&lt;br&gt;&lt;/p&gt;" style="ellipse;whiteSpace=wrap;html=1;" parent="1" vertex="1">
          <mxGeometry x="70" y="840" width="95" height="40" as="geometry" />
        </mxCell>
        <mxCell id="flHt2bnwaiDw3f1oSS73-150" style="rounded=0;orthogonalLoop=1;jettySize=auto;html=1;endArrow=none;endFill=0;entryX=0;entryY=0.5;entryDx=0;entryDy=0;exitX=0.75;exitY=1;exitDx=0;exitDy=0;" parent="1" source="flHt2bnwaiDw3f1oSS73-141" target="flHt2bnwaiDw3f1oSS73-146" edge="1">
          <mxGeometry relative="1" as="geometry">
            <mxPoint x="82" y="730" as="sourcePoint" />
            <mxPoint x="94" y="856" as="targetPoint" />
          </mxGeometry>
        </mxCell>
        <mxCell id="flHt2bnwaiDw3f1oSS73-151" style="rounded=0;orthogonalLoop=1;jettySize=auto;html=1;endArrow=none;endFill=0;entryX=0;entryY=0.5;entryDx=0;entryDy=0;exitX=1;exitY=1;exitDx=0;exitDy=0;" parent="1" source="flHt2bnwaiDw3f1oSS73-141" target="flHt2bnwaiDw3f1oSS73-145" edge="1">
          <mxGeometry relative="1" as="geometry">
            <mxPoint x="115" y="730" as="sourcePoint" />
            <mxPoint x="220" y="850" as="targetPoint" />
          </mxGeometry>
        </mxCell>
        <mxCell id="flHt2bnwaiDw3f1oSS73-152" style="rounded=0;orthogonalLoop=1;jettySize=auto;html=1;endArrow=none;endFill=0;entryX=0;entryY=1;entryDx=0;entryDy=0;exitX=1;exitY=0.25;exitDx=0;exitDy=0;" parent="1" source="flHt2bnwaiDw3f1oSS73-141" target="flHt2bnwaiDw3f1oSS73-144" edge="1">
          <mxGeometry relative="1" as="geometry">
            <mxPoint x="150" y="730" as="sourcePoint" />
            <mxPoint x="225" y="770" as="targetPoint" />
          </mxGeometry>
        </mxCell>
        <mxCell id="flHt2bnwaiDw3f1oSS73-153" style="rounded=0;orthogonalLoop=1;jettySize=auto;html=1;endArrow=none;endFill=0;entryX=0.5;entryY=1;entryDx=0;entryDy=0;exitX=0.661;exitY=-0.079;exitDx=0;exitDy=0;exitPerimeter=0;" parent="1" source="flHt2bnwaiDw3f1oSS73-141" target="flHt2bnwaiDw3f1oSS73-143" edge="1">
          <mxGeometry relative="1" as="geometry">
            <mxPoint x="150" y="700" as="sourcePoint" />
            <mxPoint x="234" y="694" as="targetPoint" />
          </mxGeometry>
        </mxCell>
        <mxCell id="flHt2bnwaiDw3f1oSS73-154" value="" style="fontSize=12;html=1;endArrow=ERoneToMany;rounded=0;strokeWidth=1;edgeStyle=orthogonalEdgeStyle;exitX=0.25;exitY=1;exitDx=0;exitDy=0;entryX=0.75;entryY=0;entryDx=0;entryDy=0;" parent="1" source="flHt2bnwaiDw3f1oSS73-141" target="flHt2bnwaiDw3f1oSS73-97" edge="1">
          <mxGeometry width="100" height="100" relative="1" as="geometry">
            <mxPoint x="30" y="740" as="sourcePoint" />
            <mxPoint x="-592" y="910" as="targetPoint" />
            <Array as="points">
              <mxPoint x="30" y="720" />
              <mxPoint x="30" y="890" />
              <mxPoint x="-593" y="890" />
            </Array>
          </mxGeometry>
        </mxCell>
        <mxCell id="flHt2bnwaiDw3f1oSS73-155" value="1" style="edgeLabel;html=1;align=center;verticalAlign=middle;resizable=0;points=[];" parent="flHt2bnwaiDw3f1oSS73-154" vertex="1" connectable="0">
          <mxGeometry x="-0.8293" y="-5" relative="1" as="geometry">
            <mxPoint x="-5" y="-54" as="offset" />
          </mxGeometry>
        </mxCell>
        <mxCell id="flHt2bnwaiDw3f1oSS73-161" value="&lt;b&gt;&lt;span style=&quot;font-size:11.0pt;line-height:115%;&lt;br/&gt;font-family:&amp;quot;Calibri&amp;quot;,sans-serif;mso-ascii-theme-font:minor-latin;mso-fareast-font-family:&lt;br/&gt;Calibri;mso-fareast-theme-font:minor-latin;mso-hansi-theme-font:minor-latin;&lt;br/&gt;mso-bidi-font-family:&amp;quot;Times New Roman&amp;quot;;mso-bidi-theme-font:minor-bidi;&lt;br/&gt;mso-ansi-language:EN-US;mso-fareast-language:EN-US;mso-bidi-language:AR-SA&quot;&gt;OrderDetails&lt;/span&gt;&lt;/b&gt;" style="rounded=0;whiteSpace=wrap;html=1;" parent="1" vertex="1">
          <mxGeometry x="-680" y="770" width="110" height="40" as="geometry" />
        </mxCell>
        <mxCell id="flHt2bnwaiDw3f1oSS73-162" value="&lt;p data-pm-slice=&quot;1 1 [&amp;quot;tiptapChildEditor&amp;quot;,{&amp;quot;id&amp;quot;:&amp;quot;7d3618de-cc40-4f9c-b0e3-d91000557f6b&amp;quot;,&amp;quot;entityid&amp;quot;:&amp;quot;&amp;quot;,&amp;quot;shapeId&amp;quot;:&amp;quot;ynXCehrxjkT&amp;quot;,&amp;quot;textId&amp;quot;:&amp;quot;SPdfIw4AN7d&amp;quot;}]&quot; dir=&quot;ltr&quot;&gt;&lt;span style=&quot;line-height: 115%;&quot;&gt;&lt;font style=&quot;font-size: 14px;&quot;&gt;&lt;u&gt;OrderID&lt;/u&gt;&lt;/font&gt;&lt;/span&gt;&lt;br&gt;&lt;/p&gt;" style="ellipse;whiteSpace=wrap;html=1;" parent="1" vertex="1">
          <mxGeometry x="-837.5" y="685" width="95" height="40" as="geometry" />
        </mxCell>
        <mxCell id="flHt2bnwaiDw3f1oSS73-163" value="&lt;p data-pm-slice=&quot;1 1 [&amp;quot;tiptapChildEditor&amp;quot;,{&amp;quot;id&amp;quot;:&amp;quot;7d3618de-cc40-4f9c-b0e3-d91000557f6b&amp;quot;,&amp;quot;entityid&amp;quot;:&amp;quot;&amp;quot;,&amp;quot;shapeId&amp;quot;:&amp;quot;ynXCehrxjkT&amp;quot;,&amp;quot;textId&amp;quot;:&amp;quot;SPdfIw4AN7d&amp;quot;}]&quot; dir=&quot;ltr&quot;&gt;&lt;span style=&quot;line-height: 115%;&quot;&gt;&lt;font style=&quot;font-size: 14px;&quot;&gt;&lt;u&gt;ProductID&lt;/u&gt;&lt;/font&gt;&lt;/span&gt;&lt;br&gt;&lt;/p&gt;" style="ellipse;whiteSpace=wrap;html=1;" parent="1" vertex="1">
          <mxGeometry x="-932.5" y="740" width="95" height="40" as="geometry" />
        </mxCell>
        <mxCell id="flHt2bnwaiDw3f1oSS73-164" value="&lt;p data-pm-slice=&quot;1 1 [&amp;quot;tiptapChildEditor&amp;quot;,{&amp;quot;id&amp;quot;:&amp;quot;7d3618de-cc40-4f9c-b0e3-d91000557f6b&amp;quot;,&amp;quot;entityid&amp;quot;:&amp;quot;&amp;quot;,&amp;quot;shapeId&amp;quot;:&amp;quot;ynXCehrxjkT&amp;quot;,&amp;quot;textId&amp;quot;:&amp;quot;SPdfIw4AN7d&amp;quot;}]&quot; dir=&quot;ltr&quot;&gt;&lt;span style=&quot;font-size:11.0pt;line-height:115%;&lt;br/&gt;font-family:&amp;quot;Calibri&amp;quot;,sans-serif;mso-ascii-theme-font:minor-latin;mso-fareast-font-family:&lt;br/&gt;Calibri;mso-fareast-theme-font:minor-latin;mso-hansi-theme-font:minor-latin;&lt;br/&gt;mso-bidi-font-family:&amp;quot;Times New Roman&amp;quot;;mso-bidi-theme-font:minor-bidi;&lt;br/&gt;mso-ansi-language:EN-US;mso-fareast-language:EN-US;mso-bidi-language:AR-SA&quot;&gt;Quantity&lt;/span&gt;&lt;br&gt;&lt;/p&gt;" style="ellipse;whiteSpace=wrap;html=1;" parent="1" vertex="1">
          <mxGeometry x="-932.5" y="800" width="95" height="40" as="geometry" />
        </mxCell>
        <mxCell id="flHt2bnwaiDw3f1oSS73-165" value="&lt;p data-pm-slice=&quot;1 1 [&amp;quot;tiptapChildEditor&amp;quot;,{&amp;quot;id&amp;quot;:&amp;quot;7d3618de-cc40-4f9c-b0e3-d91000557f6b&amp;quot;,&amp;quot;entityid&amp;quot;:&amp;quot;&amp;quot;,&amp;quot;shapeId&amp;quot;:&amp;quot;ynXCehrxjkT&amp;quot;,&amp;quot;textId&amp;quot;:&amp;quot;SPdfIw4AN7d&amp;quot;}]&quot; dir=&quot;ltr&quot;&gt;&lt;span style=&quot;font-size:11.0pt;line-height:115%;&lt;br/&gt;font-family:&amp;quot;Calibri&amp;quot;,sans-serif;mso-ascii-theme-font:minor-latin;mso-fareast-font-family:&lt;br/&gt;Calibri;mso-fareast-theme-font:minor-latin;mso-hansi-theme-font:minor-latin;&lt;br/&gt;mso-bidi-font-family:&amp;quot;Times New Roman&amp;quot;;mso-bidi-theme-font:minor-bidi;&lt;br/&gt;mso-ansi-language:EN-US;mso-fareast-language:EN-US;mso-bidi-language:AR-SA&quot;&gt;&amp;nbsp;Price&amp;nbsp;&lt;/span&gt;&lt;br&gt;&lt;/p&gt;" style="ellipse;whiteSpace=wrap;html=1;" parent="1" vertex="1">
          <mxGeometry x="-837.5" y="840" width="95" height="40" as="geometry" />
        </mxCell>
        <mxCell id="flHt2bnwaiDw3f1oSS73-166" value="" style="endArrow=none;html=1;rounded=0;entryX=0;entryY=0.5;entryDx=0;entryDy=0;" parent="1" source="flHt2bnwaiDw3f1oSS73-162" target="flHt2bnwaiDw3f1oSS73-161" edge="1">
          <mxGeometry width="50" height="50" relative="1" as="geometry">
            <mxPoint x="-642" y="940" as="sourcePoint" />
            <mxPoint x="-759" y="944" as="targetPoint" />
          </mxGeometry>
        </mxCell>
        <mxCell id="flHt2bnwaiDw3f1oSS73-167" value="" style="endArrow=none;html=1;rounded=0;entryX=0;entryY=0.5;entryDx=0;entryDy=0;exitX=1;exitY=0;exitDx=0;exitDy=0;" parent="1" source="flHt2bnwaiDw3f1oSS73-163" target="flHt2bnwaiDw3f1oSS73-161" edge="1">
          <mxGeometry width="50" height="50" relative="1" as="geometry">
            <mxPoint x="-757" y="733" as="sourcePoint" />
            <mxPoint x="-670" y="800" as="targetPoint" />
          </mxGeometry>
        </mxCell>
        <mxCell id="flHt2bnwaiDw3f1oSS73-168" value="" style="endArrow=none;html=1;rounded=0;entryX=0;entryY=0.5;entryDx=0;entryDy=0;exitX=0.987;exitY=0.14;exitDx=0;exitDy=0;exitPerimeter=0;" parent="1" source="flHt2bnwaiDw3f1oSS73-164" target="flHt2bnwaiDw3f1oSS73-161" edge="1">
          <mxGeometry width="50" height="50" relative="1" as="geometry">
            <mxPoint x="-842" y="756" as="sourcePoint" />
            <mxPoint x="-670" y="800" as="targetPoint" />
          </mxGeometry>
        </mxCell>
        <mxCell id="flHt2bnwaiDw3f1oSS73-169" value="" style="endArrow=none;html=1;rounded=0;entryX=0;entryY=0.75;entryDx=0;entryDy=0;exitX=0;exitY=0;exitDx=0;exitDy=0;" parent="1" source="flHt2bnwaiDw3f1oSS73-165" target="flHt2bnwaiDw3f1oSS73-161" edge="1">
          <mxGeometry width="50" height="50" relative="1" as="geometry">
            <mxPoint x="-829" y="816" as="sourcePoint" />
            <mxPoint x="-670" y="800" as="targetPoint" />
          </mxGeometry>
        </mxCell>
        <mxCell id="flHt2bnwaiDw3f1oSS73-170" value="" style="fontSize=12;html=1;endArrow=ERoneToMany;rounded=0;strokeWidth=1;entryX=0.429;entryY=1.006;entryDx=0;entryDy=0;entryPerimeter=0;exitX=0.25;exitY=0;exitDx=0;exitDy=0;" parent="1" edge="1">
          <mxGeometry width="100" height="100" relative="1" as="geometry">
            <mxPoint x="-626.25" y="920" as="sourcePoint" />
            <mxPoint x="-628.75" y="810" as="targetPoint" />
          </mxGeometry>
        </mxCell>
        <mxCell id="flHt2bnwaiDw3f1oSS73-171" value="1" style="edgeLabel;html=1;align=center;verticalAlign=middle;resizable=0;points=[];" parent="flHt2bnwaiDw3f1oSS73-170" vertex="1" connectable="0">
          <mxGeometry x="-0.8293" y="-5" relative="1" as="geometry">
            <mxPoint y="-1" as="offset" />
          </mxGeometry>
        </mxCell>
        <mxCell id="flHt2bnwaiDw3f1oSS73-172" value="" style="fontSize=12;html=1;endArrow=ERoneToMany;rounded=0;strokeWidth=1;entryX=0.5;entryY=1;entryDx=0;entryDy=0;" parent="1" target="flHt2bnwaiDw3f1oSS73-5" edge="1">
          <mxGeometry width="100" height="100" relative="1" as="geometry">
            <mxPoint x="-600" y="770" as="sourcePoint" />
            <mxPoint x="-618.75" y="820" as="targetPoint" />
          </mxGeometry>
        </mxCell>
        <mxCell id="flHt2bnwaiDw3f1oSS73-173" value="1" style="edgeLabel;html=1;align=center;verticalAlign=middle;resizable=0;points=[];" parent="flHt2bnwaiDw3f1oSS73-172" vertex="1" connectable="0">
          <mxGeometry x="-0.8293" y="-5" relative="1" as="geometry">
            <mxPoint y="-1" as="offset" />
          </mxGeometry>
        </mxCell>
      </root>
    </mxGraphModel>
  </diagram>
</mxfile>
